<?xml version="1.0" encoding="utf-8"?>
<!-- Generator: Adobe Illustrator 24.0.1, SVG Export Plug-In . SVG Version: 6.00 Build 0)  -->
<svg version="1.1" id="Layer_1" xmlns="http://www.w3.org/2000/svg" xmlns:xlink="http://www.w3.org/1999/xlink" x="0px" y="0px"
	 viewBox="0 0 484.54 484.54" style="enable-background:new 0 0 484.54 484.54;" xml:space="preserve">
<style type="text/css">
	.st0{fill:url(#SVGID_1_);}
</style>
<g>
	
		<linearGradient id="SVGID_1_" gradientUnits="userSpaceOnUse" x1="0" y1="243.73" x2="484.55" y2="243.73" gradientTransform="matrix(1 0 0 -1 0 486)">
		<stop  offset="1" style="stop-color:#00A99D"/>
		<stop  offset="1" style="stop-color:#FDF300"/>
	</linearGradient>
	<path class="st0" d="M0,427.61C0,304.49,0,181.37,0,58.25c0.14-0.75,0.33-1.5,0.43-2.26C3.96,29.22,18.6,11.54,44.03,2.71
		C48.2,1.26,52.61,0.82,56.93,0c124,0,248.01,0,372.01,0c0.64,0.15,1.27,0.35,1.92,0.43c19.01,2.45,33.83,11.66,44.67,27.44
		c4.3,6.27,6.73,13.32,9.02,20.45c0,129.52,0,259.04,0,388.56c-3.2,12.7-9.25,23.73-18.98,32.65c-8.24,7.55-17.97,12.21-28.68,15.01
		c-129.3,0-258.6,0-387.9,0c-1.05-0.34-2.08-0.72-3.14-1.03c-20.11-5.81-33.94-18.55-41.77-37.9C1.74,439.84,0.88,433.72,0,427.61z
		 M243.22,422.85c0,0.02,0,0.04,0,0.06c9.6,0,19.19-0.01,28.79,0c7.72,0.01,13.25-3.81,15.93-11.07c1.11-3.02,1.68-6.14,1.84-9.37
		c0.29-5.83,0.79-11.65,1.08-17.49c0.11-2.19,1.1-3.31,3.09-4.1c4.83-1.9,9.45-4.25,13.63-7.39c4.92-3.7,7.18-8.5,7.41-14.74
		c0.33-8.93-0.68-17.83-0.17-26.76c0.94-16.73,5.96-32.24,15.41-45.84c11.67-16.78,20.89-34.73,28.93-53.4
		c10.27-23.83,11.63-48.5,6.27-73.59c-7.97-37.25-31.14-63.36-63.71-80.63C275.7,64.75,246.99,61.68,218,67.52
		c-25.71,5.19-48.28,16.99-65.82,36.88c-23.07,26.17-34.44,56.62-31.58,91.8c1.45,17.9,5.81,34.98,14.9,50.65
		c8.25,14.22,16.49,28.43,24.74,42.64c3.88,6.69,7.34,13.59,9.93,20.89c2.3,6.47,4.25,13.08,3.69,20.02
		c-0.64,7.92-1.17,15.83-1.08,23.78c0.16,14.99,7.07,23.59,21.81,26.76c2.47,0.53,3.36,1.62,3.34,3.97
		c-0.04,5.07,0.03,10.15,0.01,15.22c-0.02,4.69,0.7,9.24,2.62,13.54c2.67,5.99,7,9.34,13.88,9.22
		C224.02,422.72,233.62,422.85,243.22,422.85z"/>
</g>
</svg>
