<?xml version="1.0" encoding="utf-8"?>
<!-- Generator: Adobe Illustrator 24.0.0, SVG Export Plug-In . SVG Version: 6.00 Build 0)  -->
<svg version="1.1" id="Layer_1" xmlns="http://www.w3.org/2000/svg" xmlns:xlink="http://www.w3.org/1999/xlink" x="0px" y="0px"
	 viewBox="0 0 900 900" style="enable-background:new 0 0 900 900;" xml:space="preserve">
<style type="text/css">
	.st0{fill:#00A99D;}
	.st1{fill:url(#SVGID_1_);}
	.st2{fill:#FDF300;}
	.st3{fill:#FDDBAB;}
	.st4{fill:#FCFD01;}
	.st5{fill:#FBFAF9;}
	.st6{fill:#1F2525;}
	.st7{fill:#313534;}
	.st8{fill:#1D1E19;}
	.st9{fill:#F3CE94;}
	.st10{fill:#F8D196;}
	.st11{fill:#F9D39B;}
	.st12{fill:#FBF9F6;}
	.st13{fill:#FEFEEF;}
	.st14{fill:#FDA000;}
	.st15{fill:#FCCBA2;}
	.st16{fill:#75B403;}
	.st17{fill:#FBFBFB;}
	.st18{fill:#398C78;}
	.st19{fill:#65A008;}
	.st20{fill:#9BCD45;}
	.st21{fill:#99CB45;}
	.st22{fill:#9BCB45;}
	.st23{fill:#6AA20C;}
	.st24{fill:#66872F;}
	.st25{fill:#698D30;}
	.st26{fill:#659F08;}
	.st27{fill:#6BA911;}
	.st28{fill:#678B2F;}
</style>
<rect x="-1070" class="st0" width="901" height="901"/>
<linearGradient id="SVGID_1_" gradientUnits="userSpaceOnUse" x1="-0.5" y1="449" x2="900.5" y2="449">
	<stop  offset="0" style="stop-color:#00A99D"/>
	<stop  offset="1" style="stop-color:#FDF300"/>
</linearGradient>
<rect x="-0.5" y="-1.5" class="st1" width="901" height="901"/>
<rect x="1032.1" y="-50.5" class="st2" width="901" height="901"/>
<g>
	<path d="M-1070,639.7c105.4-7.3,210.8-14.1,316.1-22.1c22.6-1.7,45-3,67.6-2.3c17.8,36.7,28.4,73.9,8.8,113.5
		c-0.3,13.2-7.7,16-20,16.9c-111,7.9-221.9,16.4-332.8,25.1c-13.3,1-26.5,3.5-39.7,5.4C-1070,730.7-1070,685.2-1070,639.7z"/>
	<path class="st3" d="M-505.7,782.8c7.7-0.4,15.4-0.8,23.1-1.1c15.3-4.5,30.9-7.4,45.4-14.7c11.9-5.9,24.8-9.3,35.7,3.1
		c11.1,10,6.3,18.1-3.7,24.6c-53.4,35.4-112.6,43.1-173.2,28.4c-26.2-6.4-34.2-35.9-44.9-59.3c-8.6-18.7-6.8-43.8-30.6-53.9
		c-21.9-26.2-25.4-68.1-7.9-95.8c44-12.7,73.1-1.4,83.1,37.6c10.4,40.9,23.7,78.6,57.7,106.4c5.6,4.6,6.8,14.5,10,22
		c3.4,9.2-1.7,14-9,17.6c-9.7,2.4-14.8-8-23.1-8.7c-0.4,0-1-0.1-1.6-0.2c1.7,0.3,3.4,0.7,5.2,1.3
		C-524.2,806.1-513.9,799.4-505.7,782.8z"/>
	<path class="st4" d="M-487.4,600.7c-30.9-21.9-52.8-48.4-45.4-89.8c7-39.2,36.6-67.8,74.1-71.4c35.8-3.4,68.5,16.2,81,48.7
		c13.5,34.9,1.5,75.4-29.7,99.1c-5.7,4.3-12.2,7.5-18.4,11.2c-5.1,6.1-10.6,10.7-19.2,6.7c-11.5-9.5-9.8-21.8-6.5-34
		c3.3-12.4,4-22.8-12-25.6c-6.2-0.2-11.4,1.3-13.6,7.9c2.4,17.7,29.3,35.3,0.2,52.9C-481.6,606.7-485.6,605.6-487.4,600.7z"/>
	<path class="st5" d="M-661.7,614c2.6,31.9,5.2,63.9,7.9,95.8c2.2,18.9-10.3,19.5-23.7,18.9c-2.9-37.8-5.9-75.6-8.8-113.5
		C-678.1,614.9-669.9,614.5-661.7,614z"/>
	<path class="st3" d="M-458.6,768.9c13-14.8,33.4-19.2,47-33.7c3.5-3.8,13.4-12.5,21.3-6.1c9.1,7.3-0.1,14.5-3.5,21.3
		c-2.3,4.5-5.1,8.7-7.7,13C-421.1,759.9-438.1,782.9-458.6,768.9z"/>
	<path class="st6" d="M-436.6,633.3c-7.1,11.3-16.6,24-29.9,19.3c-12.5-4.4-29.5-11-26-31.4C-472.8,620.5-452.4,616.1-436.6,633.3z"
		/>
	<path class="st7" d="M-436.6,633.3c-19.3-0.8-39.1,0.6-55.9-12c0-4-0.1-8-0.1-12.1c20.5,1.2,42-7.6,61.3,6.2
		C-433.1,621.4-434.9,627.3-436.6,633.3z"/>
	<path class="st8" d="M-431.3,615.4c-21.1,4.4-41.8,5.4-61.3-6.2c1.7-2.8,3.5-5.6,5.2-8.5c4.2,0.2,8.5,0.4,12.7,0.6
		c10.3-1.5,20.6-7.9,30.9,0c6-0.9,12-1.8,18.1-2.7C-424.7,605.1-427.6,610.4-431.3,615.4z"/>
	<path class="st9" d="M-458.6,768.9c19.7,4.5,37-15.3,57.1-5.5c0,2.2,0,4.5,0,6.7c-27.7-0.5-52.7,17.5-81.2,11.6
		C-474.6,777.4-466.6,773.2-458.6,768.9z"/>
	<path class="st10" d="M-522.8,795.1c4-5,7.9-10.1,11.9-15.1c2.1,0.3,3.8,1.2,5.2,2.8c-8.6,28.1-13.9,29.8-37.1,11.9
		c1.6-2,3.6-3.4,6.1-4C-531.3,789.8-527.8,794.8-522.8,795.1z"/>
	<path class="st2" d="M-624.3,502c15.3-8.5,24-10.4,38-4.5C-598.6,504.8-607.7,504.5-624.3,502z"/>
	<path class="st2" d="M-333.3,532.1c15.7-6.5,24.7-6,33.6,3.8C-312.9,544.6-319.4,533.6-333.3,532.1z"/>
	<path class="st2" d="M-312.9,444.4c3.1-11.9,10.2-13.5,20.4-12.9C-295.3,444.2-302.4,445.8-312.9,444.4z"/>
	<path class="st2" d="M-589.4,582.6c-2.7-1.5-6.8-2.5-7.1-4.2c-1-5.3,3.6-6.7,7.6-7c3.5-0.3,9.1-1.7,9.1,3.6
		C-579.9,577.4-585.6,579.8-589.4,582.6z"/>
	<path class="st2" d="M-391.1,328.6c7.1,11.5,0.2,17.7-5.8,27.6C-403.6,342.8-398.4,336-391.1,328.6z"/>
	<path class="st2" d="M-332.6,363.3c3.7,13-4.8,17.1-13.3,24.9C-348.6,373.4-341.7,368.4-332.6,363.3z"/>
	<path class="st2" d="M-470.9,351.9c-5.9-9.1-4.8-18-3.8-30.8C-464,332.4-466,341.4-470.9,351.9z"/>
	<path class="st2" d="M-574.9,439.7c-6,0.7-9.5,1.5-13,1.3c-2.7-0.1-6.2-1.6-2.9-5.1c1.9-2,5.3-3.7,7.9-3.4
		C-580.8,432.7-578.9,435.8-574.9,439.7z"/>
	<path class="st2" d="M-544.5,361.9c-5.4-1.5-7.9-5.9-8.6-10.8c-0.5-3.5,3.3-5.3,5.8-3.6c3.1,2.1,5.7,5.5,7.4,8.9
		C-537.7,360.4-541.3,361.2-544.5,361.9z"/>
	<path class="st11" d="M-537,794.8c-1.9,0-3.8,0-5.7-0.1c-11.7-2-20.4-7.9-25.6-19.7c10.5-3.4,16,8.4,25.1,7.3
		C-538.2,785-533.1,787.7-537,794.8z"/>
	<path class="st12" d="M-537,794.8c-2.1-4.2-4.1-8.3-6.2-12.5c15.1-9,19.2-0.3,20.4,12.8C-527.7,800.8-532.3,795.9-537,794.8z"/>
	<path class="st2" d="M-443.8,601.3c-10.3,8.4-20.6,10.2-30.9,0c3.1-21.3-15.7-34.9-18.9-54c5.4-16.8,22.1-3.2,30.6-11.5
		c38.8,4.3,38.5,4.2,24.3,39C-442,582.9-442.1,592.4-443.8,601.3z"/>
	<path class="st13" d="M-516.3,545.4c-10.4-36.1-0.4-58.3,20.8-75.5c19.3-15.6,41.6-21.5,66.1-11.9c6.5,2.6,15,5.1,12.8,13.8
		c-1.9,7.4-10,4.9-15.9,4.8C-486,475.7-501.1,487-516.3,545.4z"/>
	<path class="st14" d="M-462.9,535.8c-1.8,8.2,2.8,26.6-14.8,8.9c-5.7-5.7-10.7,0.8-15.8,2.6C-488.4,529.9-475,534.6-462.9,535.8z"
		/>
</g>
<g>
	<path d="M1595.4,583.3c3.1-21.1,21.8-15.9,34.1-18.3c101.1-19.4,202.5-37.7,303.8-56.3c0,51.7,0,103.4,0,155
		c-95.9,16.9-192,32.5-287.5,51.7c-24.2,4.9-29.5-3.5-32.3-22.5C1588.3,670.2,1579.2,615.3,1595.4,583.3z"/>
	<path class="st15" d="M1437.4,585.8c22.4,10,45,19.7,67.1,30.2c18.4,8.7,35,8.2,50.1-6.5c2.8-0.7,5.7-2.9,8.5-0.3
		c17.9,16.5,23,64.4,9.4,87.1c-38.9,15.2-78,23.6-119,6.8c-21.4-8.8-24.8,12.2-33.5,23.2c-11.5,14.5-14.2,39.9-43.5,30.7
		c-4.5-1.4-12.3,13.3-20,3.2c-5.5-7.1,0-15.7,2.7-23.2c3.4-9.6,7.2-19,10.8-28.5c-0.1-3.4,5.8-7.9-1.7-10.1
		c-5.2,8.7-10,17.7-15.8,26c-7.1,10.2-11,29.3-27.8,22.2c-18.9-8-3-22.6-1.1-34.4c-3.4-6.8-1.2-13.8-0.4-20.7
		c1.3-11.6,12.9-19.5,11.3-31.8c-12.3,2.8-14.7,19.9-28.8,19.3c-4.7,0.7-9.4,1.4-14.2,0.3c-16.7-2.4-24.7-10.4-18.3-27.8
		c3.8-7.3,9.8-13.1,13.4-20.4c12.4-17.7,34.4-21.7,49.7-35.3c27.1-11.7,53.7-25.7,84.9-20.9C1427,578,1434.2,578.9,1437.4,585.8z"/>
	<path class="st16" d="M1437.4,585.8c-6.3-1.2-12.6-2.4-19-3.6c-5.4-2.9-12.9-4.5-15.6-9.4c-17.3-31.3-38.8-20.2-61-7.2
		c-22.9,13.5-51.8,13.1-73,30.7c-5.2,2.4-10.4,5.1-15.6,7.4c-2.7,0.9-5.5,1.8-8.1,2.8c-34.1,13.8-64,36.1-98.7,48.7
		c-11.2,4.1-14.6,13.7-9.7,25.2c1.2,2.8,2.5,5.6,3.7,8.5c27.5,64.8,27.6,65,90.8,33.9c19.4-9.5,40.4-14.7,59.9-23.8
		c6.9-1.6,13.6-3.9,20.2-6.4c7-1,14.1-3.4,20.4,2c0.3,7.1-3.5,12.4-7.9,17.4c-48.9,21.9-98.2,43-146.5,66.1
		c-17,8.1-24.8,6.8-32.2-11.5c-13.6-33.4-29.1-66-45.1-98.4c-7.3-14.8-7.4-23.1,9.8-30.8c90.3-40.5,180.2-81.7,269.9-123.6
		c17-7.9,26.2-6,32.8,12.1C1419.8,546.4,1429,565.9,1437.4,585.8z"/>
	<path class="st17" d="M1572.6,696.3c-6.9-28.8-6.4-59-17.9-86.8c-3-34.6,23.6-23.1,40.8-26.1c6,36.5,12.1,73,18.2,109.6
		C1602.9,713.4,1585.3,714.9,1572.6,696.3z"/>
	<path class="st18" d="M1368.4,698.3c-0.4-6.8,5.9-15.6,8.3-12.8c6.7,8.1-1.3,16-6.6,22.9C1369.5,705,1368.9,701.6,1368.4,698.3z"/>
	<path class="st19" d="M1263.8,588.6c33.1-23,72.5-33.1,107.5-52.4c12.8-7,23.2-5,29.4,10.3c5,12.3,11.8,23.9,17.8,35.8
		c-26.7,8.9-53.5,17.7-80.2,26.6C1310.2,613.8,1287,601.3,1263.8,588.6z"/>
	<path class="st20" d="M1246.1,595.7c1.9,0.1,3.7,0.1,5.6,0.1c5.4-2.4,8.1,0.7,10.4,4.8c2.3,5.9,0.1,11.4-1.3,17
		c-6.8,20.5,16.3,21.5,22,33.8c-7,13.2-3.9,20.2,11.9,19.3c2.9,7.8,7.2,14.6,13.4,20.2c1.3,2.8,1.4,5.6,0.5,8.6
		c-7.5,5.8-17,7-25.4,10.7c-39.3,2.6-59.1-9.4-70.7-42.8C1201.5,635.3,1208.2,621,1246.1,595.7z"/>
	<path class="st21" d="M1257.4,601c-1.9-1.8-3.8-3.5-5.7-5.3c4-2.4,8-4.7,12.1-7.1c28.1-5.3,51.1,8.2,74.5,20.2
		c-14.7,10-29.4,20.1-44.1,30.1c-16.9,8.8-32.2,10.9-41.7-10.3C1248.9,618.5,1265.9,612,1257.4,601z"/>
	<path class="st22" d="M1308.3,669.7c6.1-13,17.3-19.4,30.1-24.1c10.7,25-4.2,39-22.3,51.6c-3.4,0.8-6.4-0.1-9-2.5l0.1,0.1
		C1300.4,686.1,1299.8,677.7,1308.3,669.7z"/>
	<path class="st23" d="M1313.4,695.5c17-12.3,25.9-28.7,24.9-50c7.9-6.2,15.4-13.4,30.2-12.1c-12.9,21.3-24.9,41.3-37,61.2
		c-6.1,2-12.2,4.1-18.2,6.1c-1.8-1.2-2.4-2.4-1.8-3.6C1312.2,696.1,1312.8,695.5,1313.4,695.5z"/>
	<path class="st24" d="M1257.9,620.9c3.3,23.7,22.5,15.4,36.2,18c-3.8,4.2-7.5,8.3-11.3,12.5c-35.7-4.4-40-9.6-30.9-36.9
		C1257.2,613.6,1260.3,614.6,1257.9,620.9z"/>
	<path class="st25" d="M1308.3,669.7c-0.4,8.4-0.7,16.7-1.1,25.1c-6-1.4-11.9-3.4-18-4.1c-4.8-0.6-9.8,0.4-16.8,0.8
		c3.5-13.6,17.5-12.2,22.3-20.7C1299.3,670.4,1303.8,670,1308.3,669.7z"/>
	<path class="st26" d="M1246.1,595.7c-43.6,53.3-26.2,99.5,41.8,111.1c2.4-2.3,4.7-2.3,6.8,0.4c-38.1,18-76.5,35.6-114.2,54.3
		c-15.2,7.6-22.6,2.3-28.6-11.4c-10.3-23.6-21-47-31.9-70.3c-6.8-14.5-5.2-26,10.5-33C1169,629.6,1207.6,612.7,1246.1,595.7z"/>
	<path class="st27" d="M1294.7,707.2c-2.3-0.1-4.6-0.3-6.8-0.4c6.4-4,12.8-8,19.2-12.1c2.1,0.3,4.2,0.6,6.3,0.9
		c0,1.8-0.1,3.5-0.1,5.3C1308.2,706,1301.6,707,1294.7,707.2z"/>
	<path class="st28" d="M1257.9,620.9c-2-2.1-4-4.3-6-6.4c1.8-4.5,3.6-9,5.4-13.5c6.2,2.3,17.3-3.2,18.1,5.2
		C1276.2,614.6,1263.7,615.5,1257.9,620.9z"/>
</g>
</svg>
