<?xml version="1.0" encoding="utf-8"?>
<!-- Generator: Adobe Illustrator 24.0.1, SVG Export Plug-In . SVG Version: 6.00 Build 0)  -->
<svg version="1.1" id="Layer_1" xmlns="http://www.w3.org/2000/svg" xmlns:xlink="http://www.w3.org/1999/xlink" x="0px" y="0px"
	 viewBox="0 0 900 730" style="enable-background:new 0 0 900 730;" xml:space="preserve">
<style type="text/css">
	.st0{fill:#FDF300;}
	.st1{fill:#FCCBA2;}
	.st2{fill:#75B403;}
	.st3{fill:#FBFBFB;}
	.st4{fill:#398C78;}
	.st5{fill:#65A008;}
	.st6{fill:#9BCD45;}
	.st7{fill:#99CB45;}
	.st8{fill:#9BCB45;}
	.st9{fill:#6AA20C;}
	.st10{fill:#66872F;}
	.st11{fill:#698D30;}
	.st12{fill:#659F08;}
	.st13{fill:#6BA911;}
	.st14{fill:#678B2F;}
</style>
<rect x="-0.5" class="st0" width="901" height="730.9"/>
<g>
	<path d="M562.8,463.7c3.1-21.1,21.8-15.9,34.1-18.3C698,426,799.4,407.7,900.7,389.1c0,51.7,0,103.4,0,155
		c-95.9,16.9-192,32.5-287.5,51.7c-24.2,4.9-29.5-3.5-32.3-22.5C555.7,550.7,546.6,495.7,562.8,463.7z"/>
	<path class="st1" d="M404.8,466.2c22.4,10,45,19.7,67.1,30.2c18.4,8.7,35,8.2,50.1-6.5c2.8-0.7,5.7-2.9,8.5-0.3
		c17.9,16.5,23,64.4,9.4,87.1c-38.9,15.2-78,23.6-119,6.8c-21.4-8.8-24.8,12.2-33.5,23.2c-11.5,14.5-14.2,39.9-43.5,30.7
		c-4.5-1.4-12.3,13.3-20,3.2c-5.5-7.1,0-15.7,2.7-23.2c3.4-9.6,7.2-19,10.8-28.5c-0.1-3.4,5.8-7.9-1.7-10.1
		c-5.2,8.7-10,17.7-15.8,26c-7.1,10.2-11,29.3-27.8,22.2c-18.9-8-3-22.6-1.1-34.4c-3.4-6.8-1.2-13.8-0.4-20.7
		c1.3-11.6,12.9-19.5,11.3-31.8c-12.3,2.8-14.7,19.9-28.8,19.3c-4.7,0.7-9.4,1.4-14.2,0.3c-16.7-2.4-24.7-10.4-18.3-27.8
		c3.8-7.3,9.8-13.1,13.4-20.4c12.4-17.7,34.4-21.7,49.7-35.3c27.1-11.7,53.7-25.7,84.9-20.9C394.4,458.4,401.6,459.4,404.8,466.2z"
		/>
	<path class="st2" d="M404.8,466.2c-6.3-1.2-12.6-2.4-19-3.6c-5.4-2.9-12.9-4.5-15.6-9.4c-17.3-31.3-38.8-20.2-61-7.2
		c-22.9,13.5-51.8,13.1-73,30.7c-5.2,2.4-10.4,5.1-15.6,7.4c-2.7,0.9-5.5,1.8-8.1,2.8c-34.1,13.8-64,36.1-98.7,48.7
		c-11.2,4.1-14.6,13.7-9.7,25.2c1.2,2.8,2.5,5.6,3.7,8.5c27.5,64.8,27.6,65,90.8,33.9c19.4-9.5,40.4-14.7,59.9-23.8
		c6.9-1.6,13.6-3.9,20.2-6.4c7-1,14.1-3.4,20.4,2c0.3,7.1-3.5,12.4-7.9,17.4c-48.9,21.9-98.2,43-146.5,66.1
		c-17,8.1-24.8,6.8-32.2-11.5c-13.6-33.4-29.1-66-45.1-98.4c-7.3-14.8-7.4-23.1,9.8-30.8c90.3-40.5,180.2-81.7,269.9-123.6
		c17-7.9,26.2-6,32.8,12.1C387.2,426.8,396.4,446.4,404.8,466.2z"/>
	<path class="st3" d="M540,576.7c-6.9-28.8-6.4-59-17.9-86.8c-3-34.6,23.6-23.1,40.8-26.1c6,36.5,12.1,73,18.2,109.6
		C570.3,593.9,552.7,595.3,540,576.7z"/>
	<path class="st4" d="M335.7,578.7c-0.4-6.8,5.9-15.6,8.3-12.8c6.7,8.1-1.3,16-6.6,22.9C336.9,585.4,336.3,582.1,335.7,578.7z"/>
	<path class="st5" d="M231.2,469c33.1-23,72.5-33.1,107.5-52.4c12.8-7,23.2-5,29.4,10.3c5,12.3,11.8,23.9,17.8,35.8
		c-26.7,8.9-53.5,17.7-80.2,26.6C277.6,494.3,254.4,481.7,231.2,469z"/>
	<path class="st6" d="M213.5,476.1c1.9,0.1,3.7,0.1,5.6,0.1c5.4-2.4,8.1,0.7,10.4,4.8c2.3,5.9,0.1,11.4-1.3,17
		c-6.8,20.5,16.3,21.5,22,33.8c-7,13.2-3.9,20.2,11.9,19.3c2.9,7.8,7.2,14.6,13.4,20.2c1.3,2.8,1.4,5.6,0.5,8.6
		c-7.5,5.8-17,7-25.4,10.7c-39.3,2.6-59.1-9.4-70.7-42.8C168.9,515.7,175.5,501.4,213.5,476.1z"/>
	<path class="st7" d="M224.8,481.4c-1.9-1.8-3.8-3.5-5.7-5.3c4-2.4,8-4.7,12.1-7.1c28.1-5.3,51.1,8.2,74.5,20.2
		c-14.7,10-29.4,20.1-44.1,30.1c-16.9,8.8-32.2,10.9-41.7-10.3C216.3,499,233.3,492.5,224.8,481.4z"/>
	<path class="st8" d="M275.7,550.1c6.1-13,17.3-19.4,30.1-24.1c10.7,25-4.2,39-22.3,51.6c-3.4,0.8-6.4-0.1-9-2.5l0.1,0.1
		C267.8,566.5,267.2,558.1,275.7,550.1z"/>
	<path class="st9" d="M280.8,576c17-12.3,25.9-28.7,24.9-50c7.9-6.2,15.4-13.4,30.2-12.1c-12.9,21.3-24.9,41.3-37,61.2
		c-6.1,2-12.2,4.1-18.2,6.1c-1.8-1.2-2.4-2.4-1.8-3.6C279.6,576.6,280.2,576,280.8,576z"/>
	<path class="st10" d="M225.3,501.3c3.3,23.7,22.5,15.4,36.2,18c-3.8,4.2-7.5,8.3-11.3,12.5c-35.7-4.4-40-9.6-30.9-36.9
		C224.6,494,227.7,495.1,225.3,501.3z"/>
	<path class="st11" d="M275.7,550.1c-0.4,8.4-0.7,16.7-1.1,25.1c-6-1.4-11.9-3.4-18-4.1c-4.8-0.6-9.8,0.4-16.8,0.8
		c3.5-13.6,17.5-12.2,22.3-20.7C266.6,550.8,271.2,550.5,275.7,550.1z"/>
	<path class="st12" d="M213.5,476.1c-43.6,53.3-26.2,99.5,41.8,111.1c2.4-2.3,4.7-2.3,6.8,0.4c-38.1,18-76.5,35.6-114.2,54.3
		c-15.2,7.6-22.6,2.3-28.6-11.4c-10.3-23.6-21-47-31.9-70.3c-6.8-14.5-5.2-26,10.5-33C136.4,510.1,175,493.1,213.5,476.1z"/>
	<path class="st13" d="M262.1,587.6c-2.3-0.1-4.6-0.3-6.8-0.4c6.4-4,12.8-8,19.2-12.1c2.1,0.3,4.2,0.6,6.3,0.9
		c0,1.8-0.1,3.5-0.1,5.3C275.6,586.4,269,587.4,262.1,587.6z"/>
	<path class="st14" d="M225.3,501.3c-2-2.1-4-4.3-6-6.4c1.8-4.5,3.6-9,5.4-13.5c6.2,2.3,17.3-3.2,18.1,5.2
		C243.6,495,231.1,496,225.3,501.3z"/>
</g>
</svg>
