<?xml version="1.0" encoding="utf-8"?>
<!-- Generator: Adobe Illustrator 24.0.0, SVG Export Plug-In . SVG Version: 6.00 Build 0)  -->
<svg version="1.1" id="Layer_1" xmlns="http://www.w3.org/2000/svg" xmlns:xlink="http://www.w3.org/1999/xlink" x="0px" y="0px"
	 viewBox="0 0 900 900" style="enable-background:new 0 0 900 900;" xml:space="preserve">
<style type="text/css">
	.st0{fill:#00A99D;}
	.st1{fill:#FDF300;}
	.st2{fill:#FDDBAB;}
	.st3{fill:#FCFD01;}
	.st4{fill:#FBFAF9;}
	.st5{fill:#1F2525;}
	.st6{fill:#313534;}
	.st7{fill:#1D1E19;}
	.st8{fill:#F3CE94;}
	.st9{fill:#F8D196;}
	.st10{fill:#F9D39B;}
	.st11{fill:#FBF9F6;}
	.st12{fill:#FEFEEF;}
	.st13{fill:#FDA000;}
	.st14{fill:#FCCBA2;}
	.st15{fill:#75B403;}
	.st16{fill:#FBFBFB;}
	.st17{fill:#398C78;}
	.st18{fill:#65A008;}
	.st19{fill:#9BCD45;}
	.st20{fill:#99CB45;}
	.st21{fill:#9BCB45;}
	.st22{fill:#6AA20C;}
	.st23{fill:#66872F;}
	.st24{fill:#698D30;}
	.st25{fill:#659F08;}
	.st26{fill:#6BA911;}
	.st27{fill:#678B2F;}
</style>
<rect x="-1" class="st0" width="901" height="901"/>
<g>
	<path d="M-1,639.7c105.4-7.3,210.8-14.1,316.1-22.1c22.6-1.7,45-3,67.6-2.3c17.8,36.7,28.4,73.9,8.8,113.5
		c-0.3,13.2-7.7,16-20,16.9c-111,7.9-221.9,16.4-332.8,25.1c-13.3,1-26.5,3.5-39.7,5.4C-1,730.7-1,685.2-1,639.7z"/>
	<path class="st2" d="M563.3,782.8c7.7-0.4,15.4-0.8,23.1-1.1c15.3-4.5,30.9-7.4,45.4-14.7c11.9-5.9,24.8-9.3,35.7,3.1
		c11.1,10,6.3,18.1-3.7,24.6c-53.4,35.4-112.6,43.1-173.2,28.4c-26.2-6.4-34.2-35.9-44.9-59.3c-8.6-18.7-6.8-43.8-30.6-53.9
		c-21.9-26.2-25.4-68.1-7.9-95.8c44-12.7,73.1-1.4,83.1,37.6c10.4,40.9,23.7,78.6,57.7,106.4c5.6,4.6,6.8,14.5,10,22
		c3.4,9.2-1.7,14-9,17.6c-9.7,2.4-14.8-8-23.1-8.7c-0.4,0-1-0.1-1.6-0.2c1.7,0.3,3.4,0.7,5.2,1.3
		C544.8,806.1,555.1,799.4,563.3,782.8z"/>
	<path class="st3" d="M581.6,600.7c-30.9-21.9-52.8-48.4-45.4-89.8c7-39.2,36.6-67.8,74.1-71.4c35.8-3.4,68.5,16.2,81,48.7
		c13.5,34.9,1.5,75.4-29.7,99.1c-5.7,4.3-12.2,7.5-18.4,11.2c-5.1,6.1-10.6,10.7-19.2,6.7c-11.5-9.5-9.8-21.8-6.5-34
		c3.3-12.4,4-22.8-12-25.6c-6.2-0.2-11.4,1.3-13.6,7.9c2.4,17.7,29.3,35.3,0.2,52.9C587.4,606.7,583.4,605.6,581.6,600.7z"/>
	<path class="st4" d="M407.3,614c2.6,31.9,5.2,63.9,7.9,95.8c2.2,18.9-10.3,19.5-23.7,18.9c-2.9-37.8-5.9-75.6-8.8-113.5
		C390.9,614.9,399.1,614.5,407.3,614z"/>
	<path class="st2" d="M610.4,768.9c13-14.8,33.4-19.2,47-33.7c3.5-3.8,13.4-12.5,21.3-6.1c9.1,7.3-0.1,14.5-3.5,21.3
		c-2.3,4.5-5.1,8.7-7.7,13C647.9,759.9,630.9,782.9,610.4,768.9z"/>
	<path class="st5" d="M632.4,633.3c-7.1,11.3-16.6,24-29.9,19.3c-12.5-4.4-29.5-11-26-31.4C596.2,620.5,616.6,616.1,632.4,633.3z"/>
	<path class="st6" d="M632.4,633.3c-19.3-0.8-39.1,0.6-55.9-12c0-4-0.1-8-0.1-12.1c20.5,1.2,42-7.6,61.3,6.2
		C635.9,621.4,634.1,627.3,632.4,633.3z"/>
	<path class="st7" d="M637.7,615.4c-21.1,4.4-41.8,5.4-61.3-6.2c1.7-2.8,3.5-5.6,5.2-8.5c4.2,0.2,8.5,0.4,12.7,0.6
		c10.3-1.5,20.6-7.9,30.9,0c6-0.9,12-1.8,18.1-2.7C644.3,605.1,641.4,610.4,637.7,615.4z"/>
	<path class="st8" d="M610.4,768.9c19.7,4.5,37-15.3,57.1-5.5c0,2.2,0,4.5,0,6.7c-27.7-0.5-52.7,17.5-81.2,11.6
		C594.4,777.4,602.4,773.2,610.4,768.9z"/>
	<path class="st9" d="M546.2,795.1c4-5,7.9-10.1,11.9-15.1c2.1,0.3,3.8,1.2,5.2,2.8c-8.6,28.1-13.9,29.8-37.1,11.9
		c1.6-2,3.6-3.4,6.1-4C537.7,789.8,541.2,794.8,546.2,795.1z"/>
	<path class="st1" d="M444.7,502c15.3-8.5,24-10.4,38-4.5C470.4,504.8,461.3,504.5,444.7,502z"/>
	<path class="st1" d="M735.7,532.1c15.7-6.5,24.7-6,33.6,3.8C756.1,544.6,749.6,533.6,735.7,532.1z"/>
	<path class="st1" d="M756.1,444.4c3.1-11.9,10.2-13.5,20.4-12.9C773.7,444.2,766.6,445.8,756.1,444.4z"/>
	<path class="st1" d="M479.6,582.6c-2.7-1.5-6.8-2.5-7.1-4.2c-1-5.3,3.6-6.7,7.6-7c3.5-0.3,9.1-1.7,9.1,3.6
		C489.1,577.4,483.4,579.8,479.6,582.6z"/>
	<path class="st1" d="M677.9,328.6c7.1,11.5,0.2,17.7-5.8,27.6C665.4,342.8,670.6,336,677.9,328.6z"/>
	<path class="st1" d="M736.4,363.3c3.7,13-4.8,17.1-13.3,24.9C720.4,373.4,727.3,368.4,736.4,363.3z"/>
	<path class="st1" d="M598.1,351.9c-5.9-9.1-4.8-18-3.8-30.8C605,332.4,603,341.4,598.1,351.9z"/>
	<path class="st1" d="M494.1,439.7c-6,0.7-9.5,1.5-13,1.3c-2.7-0.1-6.2-1.6-2.9-5.1c1.9-2,5.3-3.7,7.9-3.4
		C488.2,432.7,490.1,435.8,494.1,439.7z"/>
	<path class="st1" d="M524.5,361.9c-5.4-1.5-7.9-5.9-8.6-10.8c-0.5-3.5,3.3-5.3,5.8-3.6c3.1,2.1,5.7,5.5,7.4,8.9
		C531.3,360.4,527.7,361.2,524.5,361.9z"/>
	<path class="st10" d="M532,794.8c-1.9,0-3.8,0-5.7-0.1c-11.7-2-20.4-7.9-25.6-19.7c10.5-3.4,16,8.4,25.1,7.3
		C530.8,785,535.9,787.7,532,794.8z"/>
	<path class="st11" d="M532,794.8c-2.1-4.2-4.1-8.3-6.2-12.5c15.1-9,19.2-0.3,20.4,12.8C541.3,800.8,536.7,795.9,532,794.8z"/>
	<path class="st1" d="M625.2,601.3c-10.3,8.4-20.6,10.2-30.9,0c3.1-21.3-15.7-34.9-18.9-54c5.4-16.8,22.1-3.2,30.6-11.5
		c38.8,4.3,38.5,4.2,24.3,39C627,582.9,626.9,592.4,625.2,601.3z"/>
	<path class="st12" d="M552.7,545.4c-10.4-36.1-0.4-58.3,20.8-75.5c19.3-15.6,41.6-21.5,66.1-11.9c6.5,2.6,15,5.1,12.8,13.8
		c-1.9,7.4-10,4.9-15.9,4.8C583,475.7,567.9,487,552.7,545.4z"/>
	<path class="st13" d="M606.1,535.8c-1.8,8.2,2.8,26.6-14.8,8.9c-5.7-5.7-10.7,0.8-15.8,2.6C580.6,529.9,594,534.6,606.1,535.8z"/>
</g>
</svg>
