<?xml version="1.0" encoding="utf-8"?>
<!-- Generator: Adobe Illustrator 24.0.1, SVG Export Plug-In . SVG Version: 6.00 Build 0)  -->
<svg version="1.1" id="Layer_1" xmlns="http://www.w3.org/2000/svg" xmlns:xlink="http://www.w3.org/1999/xlink" x="0px" y="0px"
	 viewBox="0 0 901.2 901" style="enable-background:new 0 0 901.2 901;" xml:space="preserve">
<style type="text/css">
	.st0{fill:#00A99D;}
	.st1{fill:url(#SVGID_1_);}
	.st2{fill:#FDF300;}
	.st3{fill:#FDDBAB;}
	.st4{fill:#FCFD01;}
	.st5{fill:#FBFAF9;}
	.st6{fill:#1F2525;}
	.st7{fill:#313534;}
	.st8{fill:#1D1E19;}
	.st9{fill:#F3CE94;}
	.st10{fill:#F8D196;}
	.st11{fill:#F9D39B;}
	.st12{fill:#FBF9F6;}
	.st13{fill:#FEFEEF;}
	.st14{fill:#FDA000;}
	.st15{fill:#FCCBA2;}
	.st16{fill:#75B403;}
	.st17{fill:#FBFBFB;}
	.st18{fill:#398C78;}
	.st19{fill:#65A008;}
	.st20{fill:#9BCD45;}
	.st21{fill:#99CB45;}
	.st22{fill:#9BCB45;}
	.st23{fill:#6AA20C;}
	.st24{fill:#66872F;}
	.st25{fill:#698D30;}
	.st26{fill:#659F08;}
	.st27{fill:#6BA911;}
	.st28{fill:#678B2F;}
</style>
<rect x="-1821.9" y="-1363.7" class="st0" width="901" height="901"/>
<linearGradient id="SVGID_1_" gradientUnits="userSpaceOnUse" x1="-6.103516e-05" y1="146.5" x2="900.9999" y2="146.5" gradientTransform="matrix(1 0 0 -1 0 597)">
	<stop  offset="0" style="stop-color:#00A99D"/>
	<stop  offset="1" style="stop-color:#FDF300"/>
</linearGradient>
<rect x="0" class="st1" width="901" height="901"/>
<rect y="-1364.2" class="st2" width="901" height="901"/>
<g>
	<path d="M-1821.9-724c105.4-7.3,210.8-14.1,316.1-22.1c22.6-1.7,45-3,67.6-2.3c17.8,36.7,28.4,73.9,8.8,113.5
		c-0.3,13.2-7.7,16-20,16.9c-111,7.9-221.9,16.4-332.8,25.1c-13.3,1-26.5,3.5-39.7,5.4C-1821.9-633-1821.9-678.5-1821.9-724z"/>
	<path class="st3" d="M-1257.6-580.9c7.7-0.4,15.4-0.8,23.1-1.1c15.3-4.5,30.9-7.4,45.4-14.7c11.9-5.9,24.8-9.3,35.7,3.1
		c11.1,10,6.3,18.1-3.7,24.6c-53.4,35.4-112.6,43.1-173.2,28.4c-26.2-6.4-34.2-35.9-44.9-59.3c-8.6-18.7-6.8-43.8-30.6-53.9
		c-21.9-26.2-25.4-68.1-7.9-95.8c44-12.7,73.1-1.4,83.1,37.6c10.4,40.9,23.7,78.6,57.7,106.4c5.6,4.6,6.8,14.5,10,22
		c3.4,9.2-1.7,14-9,17.6c-9.7,2.4-14.8-8-23.1-8.7c-0.4,0-1-0.1-1.6-0.2c1.7,0.3,3.4,0.7,5.2,1.3
		C-1276.1-557.6-1265.8-564.3-1257.6-580.9z"/>
	<path class="st4" d="M-1239.3-763c-30.9-21.9-52.8-48.4-45.4-89.8c7-39.2,36.6-67.8,74.1-71.4c35.8-3.4,68.5,16.2,81,48.7
		c13.5,34.9,1.5,75.4-29.7,99.1c-5.7,4.3-12.2,7.5-18.4,11.2c-5.1,6.1-10.6,10.7-19.2,6.7c-11.5-9.5-9.8-21.8-6.5-34
		c3.3-12.4,4-22.8-12-25.6c-6.2-0.2-11.4,1.3-13.6,7.9c2.4,17.7,29.3,35.3,0.2,52.9C-1233.5-757-1237.5-758.1-1239.3-763z"/>
	<path class="st5" d="M-1413.6-749.7c2.6,31.9,5.2,63.9,7.9,95.8c2.2,18.9-10.3,19.5-23.7,18.9c-2.9-37.8-5.9-75.6-8.8-113.5
		C-1430-748.8-1421.8-749.2-1413.6-749.7z"/>
	<path class="st3" d="M-1210.5-594.8c13-14.8,33.4-19.2,47-33.7c3.5-3.8,13.4-12.5,21.3-6.1c9.1,7.3-0.1,14.5-3.5,21.3
		c-2.3,4.5-5.1,8.7-7.7,13C-1173-603.8-1190-580.8-1210.5-594.8z"/>
	<path class="st6" d="M-1188.5-730.4c-7.1,11.3-16.6,24-29.9,19.3c-12.5-4.4-29.5-11-26-31.4
		C-1224.7-743.2-1204.3-747.6-1188.5-730.4z"/>
	<path class="st7" d="M-1188.5-730.4c-19.3-0.8-39.1,0.6-55.9-12c0-4-0.1-8-0.1-12.1c20.5,1.2,42-7.6,61.3,6.2
		C-1185-742.3-1186.8-736.4-1188.5-730.4z"/>
	<path class="st8" d="M-1183.2-748.3c-21.1,4.4-41.8,5.4-61.3-6.2c1.7-2.8,3.5-5.6,5.2-8.5c4.2,0.2,8.5,0.4,12.7,0.6
		c10.3-1.5,20.6-7.9,30.9,0c6-0.9,12-1.8,18.1-2.7C-1176.6-758.6-1179.5-753.3-1183.2-748.3z"/>
	<path class="st9" d="M-1210.5-594.8c19.7,4.5,37-15.3,57.1-5.5c0,2.2,0,4.5,0,6.7c-27.7-0.5-52.7,17.5-81.2,11.6
		C-1226.5-586.3-1218.5-590.5-1210.5-594.8z"/>
	<path class="st10" d="M-1274.7-568.6c4-5,7.9-10.1,11.9-15.1c2.1,0.3,3.8,1.2,5.2,2.8c-8.6,28.1-13.9,29.8-37.1,11.9
		c1.6-2,3.6-3.4,6.1-4C-1283.2-573.9-1279.7-568.9-1274.7-568.6z"/>
	<path class="st2" d="M-1376.2-861.7c15.3-8.5,24-10.4,38-4.5C-1350.5-858.9-1359.6-859.2-1376.2-861.7z"/>
	<path class="st2" d="M-1085.2-831.6c15.7-6.5,24.7-6,33.6,3.8C-1064.8-819.1-1071.3-830.1-1085.2-831.6z"/>
	<path class="st2" d="M-1064.8-919.3c3.1-11.9,10.2-13.5,20.4-12.9C-1047.2-919.5-1054.3-917.9-1064.8-919.3z"/>
	<path class="st2" d="M-1341.3-781.1c-2.7-1.5-6.8-2.5-7.1-4.2c-1-5.3,3.6-6.7,7.6-7c3.5-0.3,9.1-1.7,9.1,3.6
		C-1331.8-786.3-1337.5-783.9-1341.3-781.1z"/>
	<path class="st2" d="M-1143-1035.1c7.1,11.5,0.2,17.7-5.8,27.6C-1155.5-1020.9-1150.3-1027.7-1143-1035.1z"/>
	<path class="st2" d="M-1084.5-1000.4c3.7,13-4.8,17.1-13.3,24.9C-1100.5-990.3-1093.6-995.3-1084.5-1000.4z"/>
	<path class="st2" d="M-1222.8-1011.8c-5.9-9.1-4.8-18-3.8-30.8C-1215.9-1031.3-1217.9-1022.3-1222.8-1011.8z"/>
	<path class="st2" d="M-1326.8-924c-6,0.7-9.5,1.5-13,1.3c-2.7-0.1-6.2-1.6-2.9-5.1c1.9-2,5.3-3.7,7.9-3.4
		C-1332.7-931-1330.8-927.9-1326.8-924z"/>
	<path class="st2" d="M-1296.4-1001.8c-5.4-1.5-7.9-5.9-8.6-10.8c-0.5-3.5,3.3-5.3,5.8-3.6c3.1,2.1,5.7,5.5,7.4,8.9
		C-1289.6-1003.3-1293.2-1002.5-1296.4-1001.8z"/>
	<path class="st11" d="M-1288.9-568.9c-1.9,0-3.8,0-5.7-0.1c-11.7-2-20.4-7.9-25.6-19.7c10.5-3.4,16,8.4,25.1,7.3
		C-1290.1-578.7-1285-576-1288.9-568.9z"/>
	<path class="st12" d="M-1288.9-568.9c-2.1-4.2-4.1-8.3-6.2-12.5c15.1-9,19.2-0.3,20.4,12.8
		C-1279.6-562.9-1284.2-567.8-1288.9-568.9z"/>
	<path class="st2" d="M-1195.7-762.4c-10.3,8.4-20.6,10.2-30.9,0c3.1-21.3-15.7-34.9-18.9-54c5.4-16.8,22.1-3.2,30.6-11.5
		c38.8,4.3,38.5,4.2,24.3,39C-1193.9-780.8-1194-771.3-1195.7-762.4z"/>
	<path class="st13" d="M-1268.2-818.3c-10.4-36.1-0.4-58.3,20.8-75.5c19.3-15.6,41.6-21.5,66.1-11.9c6.5,2.6,15,5.1,12.8,13.8
		c-1.9,7.4-10,4.9-15.9,4.8C-1237.9-888-1253-876.7-1268.2-818.3z"/>
	<path class="st14" d="M-1214.8-827.9c-1.8,8.2,2.8,26.6-14.8,8.9c-5.7-5.7-10.7,0.8-15.8,2.6
		C-1240.3-833.8-1226.9-829.1-1214.8-827.9z"/>
</g>
<g>
	<path d="M563.3-730.4c3.1-21.1,21.8-15.9,34.1-18.3c101.1-19.4,202.5-37.7,303.8-56.3c0,51.7,0,103.4,0,155
		c-95.9,16.9-192,32.5-287.5,51.7c-24.2,4.9-29.5-3.5-32.3-22.5C556.2-643.5,547.1-698.4,563.3-730.4z"/>
	<path class="st15" d="M405.3-727.9c22.4,10,45,19.7,67.1,30.2c18.4,8.7,35,8.2,50.1-6.5c2.8-0.7,5.7-2.9,8.5-0.3
		c17.9,16.5,23,64.4,9.4,87.1c-38.9,15.2-78,23.6-119,6.8c-21.4-8.8-24.8,12.2-33.5,23.2c-11.5,14.5-14.2,39.9-43.5,30.7
		c-4.5-1.4-12.3,13.3-20,3.2c-5.5-7.1,0-15.7,2.7-23.2c3.4-9.6,7.2-19,10.8-28.5c-0.1-3.4,5.8-7.9-1.7-10.1
		c-5.2,8.7-10,17.7-15.8,26c-7.1,10.2-11,29.3-27.8,22.2c-18.9-8-3-22.6-1.1-34.4c-3.4-6.8-1.2-13.8-0.4-20.7
		c1.3-11.6,12.9-19.5,11.3-31.8c-12.3,2.8-14.7,19.9-28.8,19.3c-4.7,0.7-9.4,1.4-14.2,0.3c-16.7-2.4-24.7-10.4-18.3-27.8
		c3.8-7.3,9.8-13.1,13.4-20.4c12.4-17.7,34.4-21.7,49.7-35.3c27.1-11.7,53.7-25.7,84.9-20.9C394.9-735.7,402.1-734.8,405.3-727.9z"
		/>
	<path class="st16" d="M405.3-727.9c-6.3-1.2-12.6-2.4-19-3.6c-5.4-2.9-12.9-4.5-15.6-9.4c-17.3-31.3-38.8-20.2-61-7.2
		c-22.9,13.5-51.8,13.1-73,30.7c-5.2,2.4-10.4,5.1-15.6,7.4c-2.7,0.9-5.5,1.8-8.1,2.8c-34.1,13.8-64,36.1-98.7,48.7
		c-11.2,4.1-14.6,13.7-9.7,25.2c1.2,2.8,2.5,5.6,3.7,8.5c27.5,64.8,27.6,65,90.8,33.9c19.4-9.5,40.4-14.7,59.9-23.8
		c6.9-1.6,13.6-3.9,20.2-6.4c7-1,14.1-3.4,20.4,2c0.3,7.1-3.5,12.4-7.9,17.4c-48.9,21.9-98.2,43-146.5,66.1
		c-17,8.1-24.8,6.8-32.2-11.5c-13.6-33.4-29.1-66-45.1-98.4c-7.3-14.8-7.4-23.1,9.8-30.8C168-716.8,257.9-758,347.6-799.9
		c17-7.9,26.2-6,32.8,12.1C387.7-767.3,396.9-747.8,405.3-727.9z"/>
	<path class="st17" d="M540.5-617.4c-6.9-28.8-6.4-59-17.9-86.8c-3-34.6,23.6-23.1,40.8-26.1c6,36.5,12.1,73,18.2,109.6
		C570.8-600.3,553.2-598.8,540.5-617.4z"/>
	<path class="st18" d="M336.3-615.4c-0.4-6.8,5.9-15.6,8.3-12.8c6.7,8.1-1.3,16-6.6,22.9C337.4-608.7,336.8-612.1,336.3-615.4z"/>
	<path class="st19" d="M231.7-725.1c33.1-23,72.5-33.1,107.5-52.4c12.8-7,23.2-5,29.4,10.3c5,12.3,11.8,23.9,17.8,35.8
		c-26.7,8.9-53.5,17.7-80.2,26.6C278.1-699.9,254.9-712.4,231.7-725.1z"/>
	<path class="st20" d="M214-718c1.9,0.1,3.7,0.1,5.6,0.1c5.4-2.4,8.1,0.7,10.4,4.8c2.3,5.9,0.1,11.4-1.3,17
		c-6.8,20.5,16.3,21.5,22,33.8c-7,13.2-3.9,20.2,11.9,19.3c2.9,7.8,7.2,14.6,13.4,20.2c1.3,2.8,1.4,5.6,0.5,8.6
		c-7.5,5.8-17,7-25.4,10.7c-39.3,2.6-59.1-9.4-70.7-42.8C169.4-678.4,176.1-692.7,214-718z"/>
	<path class="st21" d="M225.3-712.7c-1.9-1.8-3.8-3.5-5.7-5.3c4-2.4,8-4.7,12.1-7.1c28.1-5.3,51.1,8.2,74.5,20.2
		c-14.7,10-29.4,20.1-44.1,30.1c-16.9,8.8-32.2,10.9-41.7-10.3C216.8-695.2,233.8-701.7,225.3-712.7z"/>
	<path class="st22" d="M276.2-644c6.1-13,17.3-19.4,30.1-24.1c10.7,25-4.2,39-22.3,51.6c-3.4,0.8-6.4-0.1-9-2.5l0.1,0.1
		C268.3-627.6,267.7-636,276.2-644z"/>
	<path class="st23" d="M281.3-618.2c17-12.3,25.9-28.7,24.9-50c7.9-6.2,15.4-13.4,30.2-12.1c-12.9,21.3-24.9,41.3-37,61.2
		c-6.1,2-12.2,4.1-18.2,6.1c-1.8-1.2-2.4-2.4-1.8-3.6C280.1-617.6,280.7-618.2,281.3-618.2z"/>
	<path class="st24" d="M225.8-692.8c3.3,23.7,22.5,15.4,36.2,18c-3.8,4.2-7.5,8.3-11.3,12.5c-35.7-4.4-40-9.6-30.9-36.9
		C225.1-700.1,228.2-699.1,225.8-692.8z"/>
	<path class="st25" d="M276.2-644c-0.4,8.4-0.7,16.7-1.1,25.1c-6-1.4-11.9-3.4-18-4.1c-4.8-0.6-9.8,0.4-16.8,0.8
		c3.5-13.6,17.5-12.2,22.3-20.7C267.2-643.3,271.7-643.7,276.2-644z"/>
	<path class="st26" d="M214-718c-43.6,53.3-26.2,99.5,41.8,111.1c2.4-2.3,4.7-2.3,6.8,0.4c-38.1,18-76.5,35.6-114.2,54.3
		c-15.2,7.6-22.6,2.3-28.6-11.4c-10.3-23.6-21-47-31.9-70.3c-6.8-14.5-5.2-26,10.5-33C136.9-684.1,175.5-701,214-718z"/>
	<path class="st27" d="M262.6-606.5c-2.3-0.1-4.6-0.3-6.8-0.4c6.4-4,12.8-8,19.2-12.1c2.1,0.3,4.2,0.6,6.3,0.9
		c0,1.8-0.1,3.5-0.1,5.3C276.1-607.7,269.5-606.7,262.6-606.5z"/>
	<path class="st28" d="M225.8-692.8c-2-2.1-4-4.3-6-6.4c1.8-4.5,3.6-9,5.4-13.5c6.2,2.3,17.3-3.2,18.1,5.2S231.6-698.2,225.8-692.8z
		"/>
</g>
</svg>
