<?xml version="1.0" encoding="utf-8"?>
<!-- Generator: Adobe Illustrator 24.0.1, SVG Export Plug-In . SVG Version: 6.00 Build 0)  -->
<svg version="1.1" id="Layer_1" xmlns="http://www.w3.org/2000/svg" xmlns:xlink="http://www.w3.org/1999/xlink" x="0px" y="0px"
	 viewBox="0 0 901.2 730" style="enable-background:new 0 0 901.2 730;" xml:space="preserve">
<style type="text/css">
	.st0{fill:#FDF300;}
	.st1{fill:#00A99D;}
	.st2{fill:#FDDBAB;}
	.st3{fill:#FCFD01;}
	.st4{fill:#FBFAF9;}
	.st5{fill:#1F2525;}
	.st6{fill:#313534;}
	.st7{fill:#1D1E19;}
	.st8{fill:#F3CE94;}
	.st9{fill:#F8D196;}
	.st10{fill:#F9D39B;}
	.st11{fill:#FBF9F6;}
	.st12{fill:#FEFEEF;}
	.st13{fill:#FDA000;}
	.st14{fill:#FCCBA2;}
	.st15{fill:#75B403;}
	.st16{fill:#FBFBFB;}
	.st17{fill:#398C78;}
	.st18{fill:#65A008;}
	.st19{fill:#9BCD45;}
	.st20{fill:#99CB45;}
	.st21{fill:#9BCB45;}
	.st22{fill:#6AA20C;}
	.st23{fill:#66872F;}
	.st24{fill:#698D30;}
	.st25{fill:#659F08;}
	.st26{fill:#6BA911;}
	.st27{fill:#678B2F;}
	.st28{fill:#FFFFFF;}
</style>
<rect class="st0" width="901" height="730"/>
<rect x="-1821.9" y="-1449.2" class="st1" width="901" height="901"/>
<polygon class="st1" points="0,0 901,0 901,245.7 0,730 "/>
<rect y="-1449.7" class="st0" width="901" height="901"/>
<g>
	<path d="M-1821.9-809.5c105.4-7.3,210.8-14.1,316.1-22.1c22.6-1.7,45-3,67.6-2.3c17.8,36.7,28.4,73.9,8.8,113.5
		c-0.3,13.2-7.7,16-20,16.9c-111,7.9-221.9,16.4-332.8,25.1c-13.3,1-26.5,3.5-39.7,5.4C-1821.9-718.5-1821.9-764-1821.9-809.5z"/>
	<path class="st2" d="M-1257.6-666.4c7.7-0.4,15.4-0.8,23.1-1.1c15.3-4.5,30.9-7.4,45.4-14.7c11.9-5.9,24.8-9.3,35.7,3.1
		c11.1,10,6.3,18.1-3.7,24.6c-53.4,35.4-112.6,43.1-173.2,28.4c-26.2-6.4-34.2-35.9-44.9-59.3c-8.6-18.7-6.8-43.8-30.6-53.9
		c-21.9-26.2-25.4-68.1-7.9-95.8c44-12.7,73.1-1.4,83.1,37.6c10.4,40.9,23.7,78.6,57.7,106.4c5.6,4.6,6.8,14.5,10,22
		c3.4,9.2-1.7,14-9,17.6c-9.7,2.4-14.8-8-23.1-8.7c-0.4,0-1-0.1-1.6-0.2c1.7,0.3,3.4,0.7,5.2,1.3
		C-1276.1-643.1-1265.8-649.8-1257.6-666.4z"/>
	<path class="st3" d="M-1239.3-848.5c-30.9-21.9-52.8-48.4-45.4-89.8c7-39.2,36.6-67.8,74.1-71.4c35.8-3.4,68.5,16.2,81,48.7
		c13.5,34.9,1.5,75.4-29.7,99.1c-5.7,4.3-12.2,7.5-18.4,11.2c-5.1,6.1-10.6,10.7-19.2,6.7c-11.5-9.5-9.8-21.8-6.5-34
		c3.3-12.4,4-22.8-12-25.6c-6.2-0.2-11.4,1.3-13.6,7.9c2.4,17.7,29.3,35.3,0.2,52.9C-1233.5-842.5-1237.5-843.6-1239.3-848.5z"/>
	<path class="st4" d="M-1413.6-835.2c2.6,31.9,5.2,63.9,7.9,95.8c2.2,18.9-10.3,19.5-23.7,18.9c-2.9-37.8-5.9-75.6-8.8-113.5
		C-1430-834.3-1421.8-834.7-1413.6-835.2z"/>
	<path class="st2" d="M-1210.5-680.3c13-14.8,33.4-19.2,47-33.7c3.5-3.8,13.4-12.5,21.3-6.1c9.1,7.3-0.1,14.5-3.5,21.3
		c-2.3,4.5-5.1,8.7-7.7,13C-1173-689.3-1190-666.3-1210.5-680.3z"/>
	<path class="st5" d="M-1188.5-815.9c-7.1,11.3-16.6,24-29.9,19.3c-12.5-4.4-29.5-11-26-31.4
		C-1224.7-828.7-1204.3-833.1-1188.5-815.9z"/>
	<path class="st6" d="M-1188.5-815.9c-19.3-0.8-39.1,0.6-55.9-12c0-4-0.1-8-0.1-12.1c20.5,1.2,42-7.6,61.3,6.2
		C-1185-827.8-1186.8-821.9-1188.5-815.9z"/>
	<path class="st7" d="M-1183.2-833.8c-21.1,4.4-41.8,5.4-61.3-6.2c1.7-2.8,3.5-5.6,5.2-8.5c4.2,0.2,8.5,0.4,12.7,0.6
		c10.3-1.5,20.6-7.9,30.9,0c6-0.9,12-1.8,18.1-2.7C-1176.6-844.1-1179.5-838.8-1183.2-833.8z"/>
	<path class="st8" d="M-1210.5-680.3c19.7,4.5,37-15.3,57.1-5.5c0,2.2,0,4.5,0,6.7c-27.7-0.5-52.7,17.5-81.2,11.6
		C-1226.5-671.8-1218.5-676-1210.5-680.3z"/>
	<path class="st9" d="M-1274.7-654.1c4-5,7.9-10.1,11.9-15.1c2.1,0.3,3.8,1.2,5.2,2.8c-8.6,28.1-13.9,29.8-37.1,11.9
		c1.6-2,3.6-3.4,6.1-4C-1283.2-659.4-1279.7-654.4-1274.7-654.1z"/>
	<path class="st0" d="M-1376.2-947.2c15.3-8.5,24-10.4,38-4.5C-1350.5-944.4-1359.6-944.7-1376.2-947.2z"/>
	<path class="st0" d="M-1085.2-917.1c15.7-6.5,24.7-6,33.6,3.8C-1064.8-904.6-1071.3-915.6-1085.2-917.1z"/>
	<path class="st0" d="M-1064.8-1004.8c3.1-11.9,10.2-13.5,20.4-12.9C-1047.2-1005-1054.3-1003.4-1064.8-1004.8z"/>
	<path class="st0" d="M-1341.3-866.6c-2.7-1.5-6.8-2.5-7.1-4.2c-1-5.3,3.6-6.7,7.6-7c3.5-0.3,9.1-1.7,9.1,3.6
		C-1331.8-871.8-1337.5-869.4-1341.3-866.6z"/>
	<path class="st0" d="M-1143-1120.6c7.1,11.5,0.2,17.7-5.8,27.6C-1155.5-1106.4-1150.3-1113.2-1143-1120.6z"/>
	<path class="st0" d="M-1084.5-1085.9c3.7,13-4.8,17.1-13.3,24.9C-1100.5-1075.8-1093.6-1080.8-1084.5-1085.9z"/>
	<path class="st0" d="M-1222.8-1097.3c-5.9-9.1-4.8-18-3.8-30.8C-1215.9-1116.8-1217.9-1107.8-1222.8-1097.3z"/>
	<path class="st0" d="M-1326.8-1009.5c-6,0.7-9.5,1.5-13,1.3c-2.7-0.1-6.2-1.6-2.9-5.1c1.9-2,5.3-3.7,7.9-3.4
		C-1332.7-1016.5-1330.8-1013.4-1326.8-1009.5z"/>
	<path class="st0" d="M-1296.4-1087.3c-5.4-1.5-7.9-5.9-8.6-10.8c-0.5-3.5,3.3-5.3,5.8-3.6c3.1,2.1,5.7,5.5,7.4,8.9
		C-1289.6-1088.8-1293.2-1088-1296.4-1087.3z"/>
	<path class="st10" d="M-1288.9-654.4c-1.9,0-3.8,0-5.7-0.1c-11.7-2-20.4-7.9-25.6-19.7c10.5-3.4,16,8.4,25.1,7.3
		C-1290.1-664.2-1285-661.5-1288.9-654.4z"/>
	<path class="st11" d="M-1288.9-654.4c-2.1-4.2-4.1-8.3-6.2-12.5c15.1-9,19.2-0.3,20.4,12.8
		C-1279.6-648.4-1284.2-653.3-1288.9-654.4z"/>
	<path class="st0" d="M-1195.7-847.9c-10.3,8.4-20.6,10.2-30.9,0c3.1-21.3-15.7-34.9-18.9-54c5.4-16.8,22.1-3.2,30.6-11.5
		c38.8,4.3,38.5,4.2,24.3,39C-1193.9-866.3-1194-856.8-1195.7-847.9z"/>
	<path class="st12" d="M-1268.2-903.8c-10.4-36.1-0.4-58.3,20.8-75.5c19.3-15.6,41.6-21.5,66.1-11.9c6.5,2.6,15,5.1,12.8,13.8
		c-1.9,7.4-10,4.9-15.9,4.8C-1237.9-973.5-1253-962.2-1268.2-903.8z"/>
	<path class="st13" d="M-1214.8-913.4c-1.8,8.2,2.8,26.6-14.8,8.9c-5.7-5.7-10.7,0.8-15.8,2.6
		C-1240.3-919.3-1226.9-914.6-1214.8-913.4z"/>
</g>
<g>
	<path d="M563.3-815.9c3.1-21.1,21.8-15.9,34.1-18.3c101.1-19.4,202.5-37.7,303.8-56.3c0,51.7,0,103.4,0,155
		c-95.9,16.9-192,32.5-287.5,51.7c-24.2,4.9-29.5-3.5-32.3-22.5C556.2-729,547.1-783.9,563.3-815.9z"/>
	<path class="st14" d="M405.3-813.4c22.4,10,45,19.7,67.1,30.2c18.4,8.7,35,8.2,50.1-6.5c2.8-0.7,5.7-2.9,8.5-0.3
		c17.9,16.5,23,64.4,9.4,87.1c-38.9,15.2-78,23.6-119,6.8c-21.4-8.8-24.8,12.2-33.5,23.2c-11.5,14.5-14.2,39.9-43.5,30.7
		c-4.5-1.4-12.3,13.3-20,3.2c-5.5-7.1,0-15.7,2.7-23.2c3.4-9.6,7.2-19,10.8-28.5c-0.1-3.4,5.8-7.9-1.7-10.1
		c-5.2,8.7-10,17.7-15.8,26c-7.1,10.2-11,29.3-27.8,22.2c-18.9-8-3-22.6-1.1-34.4c-3.4-6.8-1.2-13.8-0.4-20.7
		c1.3-11.6,12.9-19.5,11.3-31.8c-12.3,2.8-14.7,19.9-28.8,19.3c-4.7,0.7-9.4,1.4-14.2,0.3c-16.7-2.4-24.7-10.4-18.3-27.8
		c3.8-7.3,9.8-13.1,13.4-20.4c12.4-17.7,34.4-21.7,49.7-35.3c27.1-11.7,53.7-25.7,84.9-20.9C394.9-821.2,402.1-820.3,405.3-813.4z"
		/>
	<path class="st15" d="M405.3-813.4c-6.3-1.2-12.6-2.4-19-3.6c-5.4-2.9-12.9-4.5-15.6-9.4c-17.3-31.3-38.8-20.2-61-7.2
		c-22.9,13.5-51.8,13.1-73,30.7c-5.2,2.4-10.4,5.1-15.6,7.4c-2.7,0.9-5.5,1.8-8.1,2.8c-34.1,13.8-64,36.1-98.7,48.7
		c-11.2,4.1-14.6,13.7-9.7,25.2c1.2,2.8,2.5,5.6,3.7,8.5c27.5,64.8,27.6,65,90.8,33.9c19.4-9.5,40.4-14.7,59.9-23.8
		c6.9-1.6,13.6-3.9,20.2-6.4c7-1,14.1-3.4,20.4,2c0.3,7.1-3.5,12.4-7.9,17.4c-48.9,21.9-98.2,43-146.5,66.1
		c-17,8.1-24.8,6.8-32.2-11.5c-13.6-33.4-29.1-66-45.1-98.4c-7.3-14.8-7.4-23.1,9.8-30.8c90.3-40.5,180.2-81.7,269.9-123.6
		c17-7.9,26.2-6,32.8,12.1C387.7-852.8,396.9-833.3,405.3-813.4z"/>
	<path class="st16" d="M540.5-702.9c-6.9-28.8-6.4-59-17.9-86.8c-3-34.6,23.6-23.1,40.8-26.1c6,36.5,12.1,73,18.2,109.6
		C570.8-685.8,553.2-684.3,540.5-702.9z"/>
	<path class="st17" d="M336.3-700.9c-0.4-6.8,5.9-15.6,8.3-12.8c6.7,8.1-1.3,16-6.6,22.9C337.4-694.2,336.8-697.6,336.3-700.9z"/>
	<path class="st18" d="M231.7-810.6c33.1-23,72.5-33.1,107.5-52.4c12.8-7,23.2-5,29.4,10.3c5,12.3,11.8,23.9,17.8,35.8
		c-26.7,8.9-53.5,17.7-80.2,26.6C278.1-785.4,254.9-797.9,231.7-810.6z"/>
	<path class="st19" d="M214-803.5c1.9,0.1,3.7,0.1,5.6,0.1c5.4-2.4,8.1,0.7,10.4,4.8c2.3,5.9,0.1,11.4-1.3,17
		c-6.8,20.5,16.3,21.5,22,33.8c-7,13.2-3.9,20.2,11.9,19.3c2.9,7.8,7.2,14.6,13.4,20.2c1.3,2.8,1.4,5.6,0.5,8.6
		c-7.5,5.8-17,7-25.4,10.7c-39.3,2.6-59.1-9.4-70.7-42.8C169.4-763.9,176.1-778.2,214-803.5z"/>
	<path class="st20" d="M225.3-798.2c-1.9-1.8-3.8-3.5-5.7-5.3c4-2.4,8-4.7,12.1-7.1c28.1-5.3,51.1,8.2,74.5,20.2
		c-14.7,10-29.4,20.1-44.1,30.1c-16.9,8.8-32.2,10.9-41.7-10.3C216.8-780.7,233.8-787.2,225.3-798.2z"/>
	<path class="st21" d="M276.2-729.5c6.1-13,17.3-19.4,30.1-24.1c10.7,25-4.2,39-22.3,51.6c-3.4,0.8-6.4-0.1-9-2.5l0.1,0.1
		C268.3-713.1,267.7-721.5,276.2-729.5z"/>
	<path class="st22" d="M281.3-703.7c17-12.3,25.9-28.7,24.9-50c7.9-6.2,15.4-13.4,30.2-12.1c-12.9,21.3-24.9,41.3-37,61.2
		c-6.1,2-12.2,4.1-18.2,6.1c-1.8-1.2-2.4-2.4-1.8-3.6C280.1-703.1,280.7-703.7,281.3-703.7z"/>
	<path class="st23" d="M225.8-778.3c3.3,23.7,22.5,15.4,36.2,18c-3.8,4.2-7.5,8.3-11.3,12.5c-35.7-4.4-40-9.6-30.9-36.9
		C225.1-785.6,228.2-784.6,225.8-778.3z"/>
	<path class="st24" d="M276.2-729.5c-0.4,8.4-0.7,16.7-1.1,25.1c-6-1.4-11.9-3.4-18-4.1c-4.8-0.6-9.8,0.4-16.8,0.8
		c3.5-13.6,17.5-12.2,22.3-20.7C267.2-728.8,271.7-729.2,276.2-729.5z"/>
	<path class="st25" d="M214-803.5c-43.6,53.3-26.2,99.5,41.8,111.1c2.4-2.3,4.7-2.3,6.8,0.4c-38.1,18-76.5,35.6-114.2,54.3
		c-15.2,7.6-22.6,2.3-28.6-11.4c-10.3-23.6-21-47-31.9-70.3c-6.8-14.5-5.2-26,10.5-33C136.9-769.6,175.5-786.5,214-803.5z"/>
	<path class="st26" d="M262.6-692c-2.3-0.1-4.6-0.3-6.8-0.4c6.4-4,12.8-8,19.2-12.1c2.1,0.3,4.2,0.6,6.3,0.9c0,1.8-0.1,3.5-0.1,5.3
		C276.1-693.2,269.5-692.2,262.6-692z"/>
	<path class="st27" d="M225.8-778.3c-2-2.1-4-4.3-6-6.4c1.8-4.5,3.6-9,5.4-13.5c6.2,2.3,17.3-3.2,18.1,5.2S231.6-783.7,225.8-778.3z
		"/>
</g>
<g>
	<path class="st28" d="M350.4,436.8c0-46.7,0-93.1,0-139.5c0.7-0.1,1.1-0.3,1.6-0.3c20.6,0.2,41.3-0.2,61.8,0.8
		c18.8,0.9,36.5,6.1,51.8,17.6c32.6,24.4,30.2,71.5,7.5,95.9c-12.8,13.8-29,21.1-47.2,23.9c-7.1,1.1-14.3,1.5-21.4,1.6
		c-16.6,0.2-33.2,0.1-49.7,0.1C353.4,436.8,352,436.8,350.4,436.8z M384.8,422.3c6.3,0,12.2,0.1,18,0c22.4-0.7,38.4-12.8,45.5-34
		c3.1-9.4,4.2-19.2,2.9-28.9c-5.3-41.4-34.3-51.7-66.4-47.2C384.8,348.7,384.8,385.3,384.8,422.3z"/>
	<path class="st28" d="M549.4,355.1c19.4,0,38.5,0,57.7,0c0,4.1,0,7.7,0,11.8c-19.2,0-38.3,0-57.7,0c0,18.6,0,36.7,0,55.4
		c23.1,0,46.1,0,69.4,0c0,4.9,0,9.5,0,14.3c-34.5,0-69.1,0-103.9,0c0-46.4,0-92.7,0-139.3c34.6,0,69.2,0,103.9,0c0,3.9,0,7.7,0,12
		c-23.2,0-46.2,0-69.5,0C549.4,324.6,549.4,339.6,549.4,355.1z"/>
	<path class="st28" d="M787.7,435.3c-11.5,0-22.6,0.1-33.7-0.1c-1,0-2.5-1.5-3-2.7c-14.4-29.9-28.7-59.8-43-89.7
		c-0.4-0.9-1-1.8-1.7-3.3c-0.8,1.8-1.5,3-2.1,4.4c-13.1,29.4-26.2,58.7-39.1,88.1c-1.1,2.5-2.4,3.5-5.2,3.4c-6-0.2-12-0.1-18.3-0.1
		c0.4-1.2,0.7-2.2,1.1-3.1c20-44.9,40-89.9,59.8-134.8c1.4-3.1,3.1-3.4,6.1-3.9c9.1-1.4,13.4,2.3,17.2,10.7
		c19.7,42.6,40.2,84.9,60.4,127.3C786.7,432.5,787.1,433.7,787.7,435.3z"/>
	<path class="st28" d="M287.4,297.2c11.3,0,22.5,0,33.8,0c0,46.5,0,92.8,0,139.4c-11.2,0-22.4,0-33.8,0
		C287.4,390.3,287.4,344,287.4,297.2z"/>
	<path class="st28" d="M259.7,435.6c-11.5,0-22.6,0.1-33.7-0.1c-1,0-2.5-1.5-3-2.7c-14.4-29.9-28.7-59.8-43-89.7
		c-0.4-0.9-1-1.8-1.7-3.3c-0.8,1.8-1.5,3-2.1,4.4c-13.1,29.4-26.2,58.7-39.1,88.1c-1.1,2.5-2.4,3.5-5.2,3.4c-6-0.2-12-0.1-18.3-0.1
		c0.4-1.2,0.7-2.2,1.1-3.1c20-44.9,40-89.9,59.8-134.8c1.4-3.1,3.1-3.4,6.1-3.9c9.1-1.4,13.4,2.3,17.2,10.7
		c19.7,42.6,40.2,84.9,60.4,127.3C258.7,432.8,259.1,434,259.7,435.6z"/>
</g>
</svg>
