<?xml version="1.0" encoding="utf-8"?>
<!-- Generator: Adobe Illustrator 24.0.0, SVG Export Plug-In . SVG Version: 6.00 Build 0)  -->
<svg version="1.1" id="Layer_1" xmlns="http://www.w3.org/2000/svg" xmlns:xlink="http://www.w3.org/1999/xlink" x="0px" y="0px"
	 viewBox="0 0 1100 499" style="enable-background:new 0 0 1100 499;" xml:space="preserve">
<style type="text/css">
	.st0{fill:#2D2D2D;}
	.st1{font-family:'MyriadPro-Regular';}
	.st2{font-size:76px;}
	.st3{fill:none;stroke:#2D2D2D;stroke-width:5;stroke-miterlimit:10;}
	.st4{fill:none;stroke:#2D2D2D;stroke-width:5;stroke-miterlimit:10;stroke-dasharray:12.0681,12.0681;}
	.st5{fill:none;stroke:#2D2D2D;stroke-width:5;stroke-miterlimit:10;stroke-dasharray:12;}
</style>
<text transform="matrix(1 0 0 1 40.061 77.9461)" class="st0 st1 st2">1</text>
<text transform="matrix(1 0 0 1 498.5093 310.928)" class="st0 st1 st2">2</text>
<text transform="matrix(1 0 0 1 1027.7682 164.8852)" class="st0 st1 st2">3</text>
<g>
	<g>
		<path class="st3" d="M64.2,85.5c0,0,0.4,2.1,1.2,5.9"/>
		<path class="st4" d="M68.1,103.1c10.5,44.8,42,160.8,91.5,179.4c68.1,28.4,147.9-47.7,210.9-58.9c69.7-5.1,98.8,39.8,125,56.4"/>
		<path class="st3" d="M500.8,283c1.9,0.9,3.7,1.6,5.6,2.1"/>
	</g>
</g>
<path class="st5" d="M537.7,288.3c0,0,135.3,12.3,219.8-147.4s270.2-18.8,270.2-18.8"/>
</svg>
