<?xml version="1.0" encoding="utf-8"?>
<!-- Generator: Adobe Illustrator 24.0.0, SVG Export Plug-In . SVG Version: 6.00 Build 0)  -->
<svg version="1.1" id="Livello_1" xmlns="http://www.w3.org/2000/svg" xmlns:xlink="http://www.w3.org/1999/xlink" x="0px" y="0px"
	 viewBox="0 0 988 400" style="enable-background:new 0 0 988 400;" xml:space="preserve">
<g>
	<path d="M369.55,288.24c0-62.44,0-124.35,0-186.43c0.88-0.18,1.53-0.44,2.18-0.44c27.55,0.26,55.13-0.24,82.63,1.07
		c25.07,1.2,48.72,8.18,69.26,23.51c43.61,32.54,40.3,95.49,9.99,128.11c-17.09,18.39-38.69,28.14-63.09,31.95
		c-9.43,1.47-19.07,1.99-28.63,2.12c-22.15,0.3-44.31,0.09-66.46,0.09C373.56,288.24,371.69,288.24,369.55,288.24z M415.61,268.89
		c8.45,0,16.29,0.2,24.11-0.04c29.89-0.92,51.36-17.07,60.77-45.43c4.18-12.6,5.55-25.61,3.88-38.62
		c-7.14-55.38-45.8-69.08-88.76-63.11C415.61,170.53,415.61,219.37,415.61,268.89z"/>
	<path d="M635.53,179.06c25.86,0,51.41,0,77.13,0c0,5.45,0,10.3,0,15.74c-25.6,0-51.13,0-77.05,0c0,24.84,0,49.1,0,73.97
		c30.86,0,61.63,0,92.75,0c0,6.61,0,12.63,0,19.06c-46.12,0-92.37,0-138.91,0c0-62,0-123.9,0-186.15c46.3,0,92.41,0,138.9,0
		c0,5.22,0,10.32,0,15.98c-30.96,0-61.73,0-92.81,0C635.53,138.29,635.53,158.38,635.53,179.06z"/>
	<path d="M954,286.14c-15.43,0-30.23,0.1-45.02-0.16c-1.4-0.02-3.31-2.07-4.06-3.63c-19.24-39.94-38.35-79.93-57.49-119.91
		c-0.59-1.23-1.27-2.42-2.3-4.36c-1.13,2.34-2.02,4.07-2.81,5.85c-17.46,39.25-34.95,78.48-52.27,117.79
		c-1.49,3.38-3.21,4.67-6.93,4.53c-8-0.3-16.02-0.09-24.51-0.09c0.55-1.63,0.88-2.93,1.42-4.14
		c26.68-60.05,53.42-120.07,79.94-180.19c1.81-4.11,4.17-4.59,8.13-5.21c12.17-1.89,17.89,3.14,23.05,14.29
		c26.32,56.96,53.73,113.42,80.75,170.06C952.62,282.47,953.17,284.08,954,286.14z"/>
	<path d="M285.35,101.62c15.14,0,30.03,0,45.21,0c0,62.16,0,124.06,0,186.28c-14.99,0-29.9,0-45.21,0
		C285.35,226.06,285.35,164.17,285.35,101.62z"/>
	<path d="M248.39,286.57c-15.43,0-30.23,0.1-45.02-0.16c-1.4-0.02-3.31-2.07-4.06-3.63c-19.24-39.94-38.35-79.93-57.49-119.91
		c-0.59-1.23-1.27-2.42-2.3-4.36c-1.13,2.34-2.02,4.07-2.81,5.85c-17.46,39.25-34.95,78.48-52.27,117.79
		c-1.49,3.38-3.21,4.67-6.93,4.53c-8-0.3-16.02-0.09-24.51-0.09c0.55-1.63,0.88-2.93,1.42-4.14
		c26.68-60.05,53.42-120.07,79.94-180.19c1.81-4.11,4.17-4.59,8.13-5.21c12.17-1.89,17.89,3.14,23.05,14.29
		c26.32,56.96,53.73,113.42,80.75,170.06C247.01,282.9,247.56,284.51,248.39,286.57z"/>
</g>
</svg>
