<?xml version="1.0" encoding="utf-8"?>
<!-- Generator: Adobe Illustrator 24.0.0, SVG Export Plug-In . SVG Version: 6.00 Build 0)  -->
<svg version="1.1" id="Livello_1" xmlns="http://www.w3.org/2000/svg" xmlns:xlink="http://www.w3.org/1999/xlink" x="0px" y="0px"
	 viewBox="0 0 230 54" style="enable-background:new 0 0 230 54;" xml:space="preserve">
<style type="text/css">
	.st0{fill:#FDF300;}
	.st1{fill:#8E8E8E;}
</style>
<g>
	<path class="st0" d="M81.9,50.7c0-15.4,0-30.8,0-46.1c0.2,0,0.4-0.1,0.5-0.1c6.8,0.1,13.6-0.1,20.4,0.3c6.2,0.3,12.1,2,17.1,5.8
		c10.8,8.1,10,23.6,2.5,31.7c-4.2,4.5-9.6,7-15.6,7.9c-2.3,0.4-4.7,0.5-7.1,0.5c-5.5,0.1-11,0-16.4,0C82.9,50.7,82.4,50.7,81.9,50.7
		z M93.3,46c2.1,0,4,0,6,0c7.4-0.2,12.7-4.2,15-11.2c1-3.1,1.4-6.3,1-9.6c-1.8-13.7-11.3-17.1-22-15.6C93.3,21.6,93.3,33.7,93.3,46z
		"/>
	<path class="st1" d="M147.7,23.7c6.4,0,12.7,0,19.1,0c0,1.3,0,2.5,0,3.9c-6.3,0-12.6,0-19.1,0c0,6.1,0,12.1,0,18.3
		c7.6,0,15.2,0,22.9,0c0,1.6,0,3.1,0,4.7c-11.4,0-22.9,0-34.4,0c0-15.3,0-30.7,0-46.1c11.5,0,22.9,0,34.4,0c0,1.3,0,2.6,0,4
		c-7.7,0-15.3,0-23,0C147.7,13.6,147.7,18.6,147.7,23.7z"/>
	<path class="st1" d="M226.5,50.2c-3.8,0-7.5,0-11.1,0c-0.3,0-0.8-0.5-1-0.9c-4.8-9.9-9.5-19.8-14.2-29.7c-0.1-0.3-0.3-0.6-0.6-1.1
		c-0.3,0.6-0.5,1-0.7,1.4c-4.3,9.7-8.6,19.4-12.9,29.1c-0.4,0.8-0.8,1.2-1.7,1.1c-2-0.1-4,0-6.1,0c0.1-0.4,0.2-0.7,0.4-1
		c6.6-14.9,13.2-29.7,19.8-44.6c0.4-1,1-1.1,2-1.3c3-0.5,4.4,0.8,5.7,3.5c6.5,14.1,13.3,28.1,20,42.1
		C226.1,49.3,226.2,49.7,226.5,50.2z"/>
	<path class="st1" d="M61,4.6c3.7,0,7.4,0,11.2,0c0,15.4,0,30.7,0,46.1c-3.7,0-7.4,0-11.2,0C61,35.4,61,20.1,61,4.6z"/>
	<path class="st1" d="M51.9,50.3c-3.8,0-7.5,0-11.1,0c-0.3,0-0.8-0.5-1-0.9c-4.8-9.9-9.5-19.8-14.2-29.7c-0.1-0.3-0.3-0.6-0.6-1.1
		c-0.3,0.6-0.5,1-0.7,1.4c-4.3,9.7-8.6,19.4-12.9,29.1c-0.4,0.8-0.8,1.2-1.7,1.1c-2-0.1-4,0-6.1,0c0.1-0.4,0.2-0.7,0.4-1
		c6.6-14.9,13.2-29.7,19.8-44.6c0.4-1,1-1.1,2-1.3c3-0.5,4.4,0.8,5.7,3.5c6.5,14.1,13.3,28.1,20,42.1C51.5,49.4,51.7,49.8,51.9,50.3
		z"/>
</g>
</svg>
