<?xml version="1.0" encoding="utf-8"?>
<!-- Generator: Adobe Illustrator 24.0.1, SVG Export Plug-In . SVG Version: 6.00 Build 0)  -->
<svg version="1.1" id="Layer_1" xmlns="http://www.w3.org/2000/svg" xmlns:xlink="http://www.w3.org/1999/xlink" x="0px" y="0px"
	 viewBox="0 0 2723 1314" style="enable-background:new 0 0 2723 1314;" xml:space="preserve">
<style type="text/css">
	.st0{fill:#FFFFFF;}
	.st1{font-family:'AcmeGothic-CondensedRegular';}
	.st2{font-size:199px;}
	.st3{fill:none;}
	.st4{fill:none;stroke:#2D2D2D;stroke-width:11;stroke-miterlimit:10;stroke-dasharray:30;}
</style>
<text transform="matrix(1 0 0 1 117.0862 537.2647)" class="st0 st1 st2">1</text>
<text transform="matrix(1 0 0 1 1361.4998 864.7722)" class="st0 st1 st2">2</text>
<text transform="matrix(1 0 0 1 2552.3513 537.2644)" class="st0 st1 st2">3</text>
<g>
	<g>
		<path id="SVGID_x5F_1_x5F_" class="st3" d="M1443.2,799.9c178-14.7,211.7-205.2,296.6-309.7c78.1-96.1,198.4-193.1,352.4-226.4
			c173.3-37.5,380.2,65.8,476.1,172.1"/>
		<text>		<textPath  xlink:href="#SVGID_x5F_1_x5F_" startOffset="55.5176%">
<tspan  class="st0 st1" style="font-size:102px;">e si completa</tspan>		</textPath>
</text>
	</g>
</g>
<g>
	<g>
		<path class="st4" d="M1443.2,810.9c178-14.7,211.7-205.2,296.6-309.7c78.1-96.1,198.4-193.1,352.4-226.4
			c173.3-37.5,380.2,65.8,476.1,172.1"/>
	</g>
</g>
<g>
	<path class="st3" d="M1734.6,988.9"/>
</g>
<g>
	<path class="st3" d="M1636.9,993.2"/>
</g>
<g>
	<g>
		<path id="SVGID_x5F_2_x5F_" class="st3" d="M176.4,484.1c76.3-13.7,160.7-157.8,271.8-215c211.3-101.4,403.1-55.3,523.8,124.4
			s221.9,339.2,379.2,376.1c4.8,1.1,24.3,6.7,29.4,7.5"/>
		<text>		<textPath  xlink:href="#SVGID_x5F_2_x5F_" startOffset="6.7179%">
<tspan  class="st0 st1" style="font-size:98.5603px;">La tua idea                        </tspan>		</textPath>
</text>
	</g>
</g>
<g>
	<g>
		<path id="SVGID_x5F_3_x5F_" class="st3" d="M181.4,494.4c76.3-14.1,160.7-163.3,271.8-222.5c211.3-104.9,403.1-57.2,523.8,128.8
			s221.9,351.1,379.2,389.2c4.8,1.2,24.3,6.9,29.4,7.8"/>
		<text>		<textPath  xlink:href="#SVGID_x5F_3_x5F_" startOffset="64.1935%">
<tspan  class="st0 st1" style="font-size:102px;">     arriva da noi</tspan>		</textPath>
</text>
	</g>
</g>
<g>
	<g>
		<path class="st4" d="M176.4,501.4c76.3-14.1,160.7-163.3,271.8-222.5c211.3-104.9,403.1-57.2,523.8,128.8s221.9,351.1,379.2,389.2
			c4.8,1.2,24.3,6.9,29.4,7.8"/>
	</g>
</g>
<path class="st4" d="M128.4,507.4c0,0-97.1-3.8-128.4-71.8"/>
<path class="st4" d="M2620,530.6c0,0,133.1,146.9,154.4,4.2"/>
</svg>
