<?xml version="1.0" encoding="utf-8"?>
<!-- Generator: Adobe Illustrator 24.0.1, SVG Export Plug-In . SVG Version: 6.00 Build 0)  -->
<svg version="1.1" id="Layer_1" xmlns="http://www.w3.org/2000/svg" xmlns:xlink="http://www.w3.org/1999/xlink" x="0px" y="0px"
	 viewBox="0 0 350 350" style="enable-background:new 0 0 350 350;" xml:space="preserve">
<style type="text/css">
	.st0{fill:#FDF300;}
	.st1{fill:#143246;}
	.st2{fill:#163447;}
	.st3{fill:#E0E4E6;}
	.st4{fill:#DFE2E5;}
	.st5{fill:#EDF0F1;}
	.st6{fill:#FEFEFC;}
	.st7{opacity:0.2;fill:#BFBFBF;}
</style>
<g id="ZYK9Q4.tif_1_">
	<g>
		<path class="st0" d="M-226.5,287.4c-4.1-6.1-4.2-13.4-5.5-20.3c-5-25.9-15.1-50-27.9-72.9c-8.7-15.5-14.2-31.6-13.5-49.7
			c1.5-35.6,28.9-67.8,63.9-74.3c45.1-8.4,86,19.1,95,64.1c3.9,19.5-0.3,37.9-9.8,55.1c-6.4,11.5-12.2,23.3-17.4,35.4
			c-7.2,16.9-11.9,34.4-14.8,52.5c-0.6,3.6-1.5,7.1-3.8,10c-2,1.8-3.3,0.8-4.1-1.2c-0.7-1.7-1.1-3.5-1.2-5.3
			c-0.7-21.4-4-42.6-3.3-64c0.2-4.2,1.3-6.9,5.1-9.1c7.5-4.4,9.9-12,10.6-20.1c0.2-2.2-0.5-4.4-2.6-5.5c-2.3-1.2-4.5-0.3-6.4,1.1
			c-2.3,1.7-3.8,4-5.3,6.4c-0.6,0.9-1.2,2.2-2.6,2c-1.3-0.2-1.5-1.6-1.9-2.7c-0.6-1.5-0.8-3.2-1.5-4.7c-2-4.1-6.6-6.5-10.5-5.7
			c-4.4,1-6.8,4.4-6.8,9.6c0,3.9,1.4,7.4,2.9,10.9c1.1,2.4,2,4.6-1.6,5.8c-4.3,1.3-7.1,0.4-7.7-3.3c-0.6-3.9-0.4-7.9-1.4-11.7
			c-1.3-4.7-3.6-8.4-8.3-10.3c-3.3-1.3-6.4-1.7-9.3,0.7c-2.9,2.3-3.6,5.5-2.9,8.9c1.5,7.2,5,13,12.4,15.4c4.4,1.4,5.5,4.2,4.9,8.3
			c-3.1,23.1-9,45.5-17.6,67.2c-0.8,2.1-1.8,4.3-3.2,6.1C-223.5,287.3-224.4,289.1-226.5,287.4z"/>
		<path class="st1" d="M-226.5,287.4c2.7,0.7,3-1.6,3.6-3.1c9.5-21.1,15.1-43.3,19-66.1c0.2-1.5,0.4-2.9,0.7-4.4
			c0.7-4.1,0.8-7.1-4.8-8.5c-7.5-1.9-12.6-10.7-12.7-18.8c0-6.5,5.1-10.7,11.5-9.3c6.6,1.5,10.7,5.7,12.1,12.2
			c0.7,3.2,1.2,6.5,1.1,9.8c-0.2,4.5,1.3,6.1,5.7,4.7c0.9-0.3,1.9-0.3,3.1-0.5c-2.6-5-5.1-9.8-5.1-15.5c-0.1-5.6,2.1-8.9,7.1-10.3
			c5.3-1.6,10,0.3,12.6,5c1.4,2.6,1.9,5.6,2.3,9.3c2.2-3.9,3.9-7.3,6.9-9.7c2.4-2,5.2-3.3,8.2-1.8c3,1.4,4,4.3,3.6,7.5
			c-1.2,9.5-3.9,18.1-13.6,22.4c-2.5,1.1-2.3,2.8-2.3,4.7c-0.6,13,0.4,26,1.4,38.9c0.8,10.2,1.6,20.3,2.3,30.5
			c0.2,2.5,0.8,3.8,3.5,3c1.6,0.1,3.2,0.2,4.9,0.2c3.7-0.1,6.9,0.7,7.5,5.1c0.6,4.3-0.9,7.3-5.6,8c-1.8,1.4-4,1.2-6.1,1.2
			c-22.6,0-45.2,0-67.8,0c-2.1,0-4.3,0.2-6.1-1.2c-4.9-0.9-5.6-4.3-5-8.4c0.6-4.2,3.8-4.7,7.2-4.7
			C-229.7,287.6-228.1,287.5-226.5,287.4z"/>
		<path class="st1" d="M-153.4,302.3c3.8,0.6,5.7,2.6,5.7,6.6c0,4-2,6-5.7,6.6c-1.8,1.6-4,1.2-6.1,1.2c-22.6,0-45.2,0-67.9,0
			c-2.1,0-4.3,0.2-6.1-1.2c-3.5-0.8-5.2-2.8-5.2-6.6c0-3.8,1.6-5.8,5.2-6.6c1.5-1,3.1-0.8,4.8-0.8c23.5,0,47,0,70.5,0
			C-156.6,301.5-154.9,301.4-153.4,302.3z"/>
		<path class="st1" d="M-152.5,317.2c3.8,1.1,5,3.8,4.7,7.5c-0.3,3.6-2.6,5-5.7,5.6c-26.3,1.8-52.7,2-79,0c-3.4-0.4-6-1.5-6.2-5.6
			c-0.2-4,0.8-6.8,5.2-7.5c1.6-1.1,3.5-0.8,5.3-0.8c23.3,0,46.7,0,70,0C-156.3,316.3-154.3,316.2-152.5,317.2z"/>
		<path class="st0" d="M-186.2,25.4c0,4.4,0.1,8.9,0,13.3c-0.2,5.6-3.7,9.2-8.9,9.1c-5.2-0.1-8.6-3.5-8.6-9.3
			c-0.1-9-0.1-18.1,0-27.1c0.1-5.7,3.5-9.3,8.6-9.4c5.3-0.1,8.8,3.6,8.9,9.6C-186.1,16.2-186.2,20.8-186.2,25.4z"/>
		<path class="st0" d="M-310.5,153.3c-4.4,0-8.9,0.1-13.3,0c-5.5-0.2-9.2-3.3-9.5-8c-0.4-5.1,2.8-9,8.6-9.3c9.7-0.4,19.4-0.4,29,0
			c5.2,0.2,8.8,4.6,8.5,9.1c-0.3,4.4-3.9,7.8-9,8.1C-300.9,153.5-305.7,153.3-310.5,153.3C-310.5,153.3-310.5,153.3-310.5,153.3z"/>
		<path class="st0" d="M-76.6,153.3c-4.4,0-8.9,0.1-13.3,0c-5.5-0.2-9.1-3.5-9.3-8.2c-0.3-4.9,2.7-8.8,8.4-9
			c9.7-0.4,19.4-0.4,29-0.1c5.3,0.2,8.9,4.4,8.8,8.9c-0.1,4.6-3.9,8.2-9.3,8.4C-67,153.5-71.8,153.3-76.6,153.3z"/>
		<path class="st2" d="M-163.5,332.4c-1.1,6-5.2,9.4-10.4,11.6c-13,5.7-26.1,5.6-39.1-0.1c-4.5-2-8.1-5-9.8-9.8
			c-0.6-2.4,1-2.9,2.8-2.9c18.2-0.1,36.3-0.2,54.5,0C-164.7,331.3-164,331.7-163.5,332.4z"/>
		<path class="st0" d="M-283.9,93.7c-0.1,6.4-6.3,10.6-12.2,7.6c-9-4.7-17.8-9.9-26.4-15.3c-3.9-2.4-4.6-7-2.6-10.9
			c2-3.7,6.5-5.7,10.5-3.8c9.8,4.7,19.1,10.3,28.1,16.3C-284.4,88.9-283.7,91.2-283.9,93.7z"/>
		<path class="st0" d="M-74.9,73.3c3.8,0.5,7.1,2.1,8.1,6.1c1.1,4-0.1,7.6-3.7,9.9c-4.2,2.6-8.5,5-12.7,7.5
			c-3.8,2.2-7.6,4.6-11.5,6.6c-5.3,2.8-10.5,1.5-12.8-2.9c-2.4-4.4-1-9,4.1-12.1c7.6-4.6,15.3-8.9,23-13.4
			C-78.7,74.1-76.9,73.4-74.9,73.3z"/>
		<path class="st0" d="M-100.1,181.4c2,0.2,4,0.8,5.9,1.9c7.4,4.3,14.8,8.5,22.1,12.9c5.6,3.3,7.2,8.1,4.5,12.7
			c-2.6,4.5-7.9,5.4-13.4,2.2c-7.7-4.4-15.4-8.8-23-13.4c-3.7-2.2-5.6-5.5-4.3-10C-107,183.8-104.2,181.9-100.1,181.4z"/>
		<path class="st0" d="M-316.4,215.8c-5,0.2-7.7-1.9-9.1-5.7c-1.4-3.7-0.5-7.2,2.7-9.2c8.9-5.6,17.9-10.9,27.2-15.9
			c4.2-2.2,8.8-0.1,10.9,3.9c2,3.9,1.3,8.4-2.7,10.9c-8.5,5.3-17.2,10.2-25.9,15.2C-314.5,215.6-315.9,215.7-316.4,215.8z"/>
		<path class="st0" d="M-268.3,17.7c2.8-0.1,5.4,1.4,7,4.3c4.6,8.1,9.4,16.2,13.8,24.4c2.7,5,1.3,9.9-3.2,12.3
			c-4.2,2.2-9.1,0.8-11.8-3.8c-4.7-8.1-9.5-16.1-13.9-24.4C-279.7,24.3-275.8,17.7-268.3,17.7z"/>
		<path class="st0" d="M-136.8,62.5c-7.1,0.2-11.7-6.1-8.7-11.8c4.7-9,9.8-17.9,15.1-26.5c2.5-4.1,7.9-4.9,11.7-2.5
			c3.8,2.4,5.2,6.9,2.9,11.2c-4.7,8.7-9.6,17.2-14.6,25.7C-132,61.2-134.5,62.4-136.8,62.5z"/>
		<path class="st3" d="M-152.5,317.2c-27,0-54,0-81,0c0-0.6,0-1.1,0-1.7c26.7,0,53.4,0,80.1,0C-153.1,316.1-152.8,316.6-152.5,317.2
			z"/>
		<path class="st4" d="M-153.4,302.3c-26.7,0-53.4,0-80.1,0c0-0.6,0-1.1,0-1.7c26.7,0,53.4,0,80.1,0
			C-153.4,301.2-153.4,301.8-153.4,302.3z"/>
		<path class="st5" d="M-163.5,332.4c-19.1-0.1-38.2-0.2-57.3-0.4c-1.5,0-2,0.8-2,2.1c-1-2.3-2.5-3.4-5.1-3
			c-1.5,0.2-3.2,0.5-4.6-0.8c26.3,0,52.7,0,79,0C-156.5,332.7-160.6,329.4-163.5,332.4z"/>
		<path class="st6" d="M-258.3,146.3c-0.4-10.5,3.9-19.5,11.9-26.9c2.1-1.9,4.3-2.7,6.5-0.6c2.4,2.3,1.3,4.6-0.7,6.4
			c-12.2,10.6-11.5,27.6-4.2,40.6c0.6,1,1.1,2,1.8,2.9c1.8,2.5,2.1,5-0.8,6.8c-2.7,1.6-4.6,0.1-6.1-2.2
			C-255,165.2-258.5,156.7-258.3,146.3z"/>
		<path class="st0" d="M-218,287.6c10.6-23.5,16.9-47.8,21.6-72.5c0.6-3-1.5-8.1,4.9-8.1c3.6,0,6.7,0,10.5,1.4
			c7.7,2.8,7.1,7.7,6.9,13.9c-0.8,19.3,1.9,38.4,3.4,57.5c0.6,7.7,0.8,7.7-6.9,7.7C-190.8,287.6-204.2,287.6-218,287.6z"/>
		<path class="st0" d="M-202.6,197.2c-0.3,1.6,0.8,3.6-0.7,4.3c-1.7,0.8-2.9-1-4-2.1c-4.1-4.1-6.5-9-6.5-14.9c0-1.2-0.5-2.8,1-3.4
			c1.4-0.6,2.5,0.4,3.6,1.2C-204.2,186.1-203.1,191.6-202.6,197.2z"/>
		<path class="st0" d="M-180.6,199.5c-3-4.6-5.3-9.4-4.9-15.1c0.1-1.4,0-3.3,1.8-3.6c1.3-0.2,2.4,0.9,3.3,1.9
			C-176.1,187.4-176.2,195.1-180.6,199.5z"/>
		<path class="st0" d="M-167,207.8c1.5-8.5,2.6-16.2,7.1-23.3C-156.8,191.7-160,202.3-167,207.8z"/>
		<path class="st0" d="M-171.4,197.4c-0.3,1.8-0.6,4.2-1.2,6.5c-0.3,1,0.2,3.1-1.5,2.9c-1.2-0.2-2.3-1.7-3.2-2.8
			c-1.2-1.5,0.5-1.9,1.2-2.5C-174.5,200-172.8,198.6-171.4,197.4z"/>
	</g>
</g>
<g id="ZYK9Q4.tif_2_">
	<g>
		<path class="st7" d="M140.5,287.4c-4.1-6.1-4.2-13.4-5.5-20.3c-5-25.9-15.1-50-27.9-72.9c-8.7-15.5-14.2-31.6-13.5-49.7
			c1.5-35.6,28.9-67.8,63.9-74.3c45.1-8.4,86,19.1,95,64.1c3.9,19.5-0.3,37.9-9.8,55.1c-6.4,11.5-12.2,23.3-17.4,35.4
			c-7.2,16.9-11.9,34.4-14.8,52.5c-0.6,3.6-1.5,7.1-3.8,10"/>
		<path class="st1" d="M219.2,292.7c-0.6-4.4-3.8-5.2-7.5-5.1c-1.6,0-3.2-0.1-4.9-0.2c-2.7,0.8-3.4-0.5-3.5-3
			c-0.7-10.2-1.5-20.3-2.3-30.5c-1.1-13-2.1-25.9-1.4-38.9c0.1-1.9-0.2-3.6,2.3-4.7c9.6-4.3,12.4-12.9,13.6-22.4
			c0.4-3.2-0.5-6.1-3.6-7.5c-3-1.4-5.8-0.2-8.2,1.8c-2.8,2.4-4.6,5.7-6.7,9.5c0,0.1-0.1,0.2-0.2,0.3c0-0.1,0-0.2,0-0.3
			c-0.4-3.6-0.9-6.4-2.3-9c-2.6-4.8-7.2-6.6-12.6-5c-5,1.5-7.2,4.8-7.1,10.4c0.1,5.6,2.6,10.4,5.1,15.5c-1.2,0.2-2.2,0.2-3.1,0.5
			c-4.4,1.4-5.9-0.3-5.7-4.7c0.1-3.2-0.4-6.6-1.1-9.8c-1.5-6.5-5.6-10.7-12.1-12.2c-6.4-1.4-11.5,2.8-11.5,9.3
			c0,8.1,5.2,16.9,12.7,18.8c5.6,1.5,5.5,4.4,4.8,8.5c-0.2,1.5-0.4,2.9-0.7,4.4c-3.9,22.7-9.5,45-19,66.1c-0.7,1.5-1,3.8-3.6,3.1
			c-1.6,0.1-3.2,0.2-4.8,0.2c-3.5,0-6.7,0.5-7.2,4.7c-0.6,4,0.2,7.5,5,8.4c1.8,1.5,4,1.2,6.1,1.2c22.6,0,45.2,0,67.8,0
			c2.1,0,4.3,0.2,6.1-1.2C218.3,300,219.8,297,219.2,292.7z M181.5,184.4c0.1-1.3,0-3.3,1.8-3.7c1.3-0.2,2.4,0.9,3.3,1.9
			c4.3,4.8,4.2,12.5-0.2,16.8C183.4,194.8,181.1,190,181.5,184.4z M190.9,201.5c1.6-1.5,3.3-2.9,4.7-4.1c-0.3,1.8-0.6,4.2-1.2,6.5
			c-0.3,1.1,0.2,3.1-1.5,2.9c-1.2-0.2-2.3-1.7-3.2-2.8C188.5,202.6,190.2,202.2,190.9,201.5z M159.7,199.4c-4.1-4.1-6.5-9-6.5-14.9
			c0-1.2-0.5-2.8,1-3.4c1.4-0.5,2.5,0.4,3.6,1.2c5,3.9,6.1,9.4,6.6,15c-0.3,1.6,0.8,3.6-0.7,4.3C162,202.3,160.8,200.5,159.7,199.4z
			 M189.5,287.6H149c10.6-23.5,16.9-47.8,21.6-72.5c0.6-3-1.5-8.1,5-8.1c3.6,0,6.7,0,10.5,1.4c7.7,2.8,7.1,7.7,6.9,13.9
			c-0.8,19.3,1.9,38.4,3.5,57.5C197,287.6,197.2,287.6,189.5,287.6z M200,207.8c1.5-8.5,2.6-16.2,7.1-23.3
			C210.2,191.7,207,202.3,200,207.8z"/>
		<path class="st1" d="M213.6,302.3c3.8,0.6,5.7,2.6,5.7,6.6c0,4-2,6-5.7,6.6c-1.8,1.6-4,1.2-6.1,1.2c-22.6,0-45.2,0-67.9,0
			c-2.1,0-4.3,0.2-6.1-1.2c-3.5-0.8-5.2-2.8-5.2-6.6c0-3.8,1.6-5.8,5.2-6.6c1.5-1,3.1-0.8,4.8-0.8c23.5,0,47,0,70.5,0
			C210.4,301.5,212.1,301.4,213.6,302.3z"/>
		<path class="st1" d="M214.5,317.2c3.8,1.1,5,3.8,4.7,7.5c-0.3,3.6-2.6,5-5.7,5.6c-26.3,1.8-52.7,2-79,0c-3.4-0.4-6-1.5-6.2-5.6
			c-0.2-4,0.8-6.8,5.2-7.5c1.6-1.1,3.5-0.8,5.3-0.8c23.3,0,46.7,0,70,0C210.7,316.3,212.7,316.2,214.5,317.2z"/>
		<path class="st2" d="M203.5,332.4c-1.1,6-5.2,9.4-10.4,11.6c-13,5.7-26.1,5.6-39.1-0.1c-4.5-2-8.1-5-9.8-9.8
			c-0.6-2.4,1-2.9,2.8-2.9c18.2-0.1,36.3-0.2,54.5,0C202.3,331.3,203,331.7,203.5,332.4z"/>
		<path class="st3" d="M214.5,317.2c-27,0-54,0-81,0c0-0.6,0-1.1,0-1.7c26.7,0,53.4,0,80.1,0C213.9,316.1,214.2,316.6,214.5,317.2z"
			/>
		<path class="st4" d="M213.6,302.3c-26.7,0-53.4,0-80.1,0c0-0.6,0-1.1,0-1.7c26.7,0,53.4,0,80.1,0
			C213.6,301.2,213.6,301.8,213.6,302.3z"/>
		<path class="st5" d="M203.5,332.4c-19.1-0.1-38.2-0.2-57.3-0.4c-1.5,0-2,0.8-2,2.1c-1-2.3-2.5-3.4-5.1-3c-1.5,0.2-3.2,0.5-4.6-0.8
			c26.3,0,52.7,0,79,0C210.5,332.7,206.4,329.4,203.5,332.4z"/>
		<path class="st6" d="M108.7,146.3c-0.4-10.5,3.9-19.5,11.9-26.9c2.1-1.9,4.3-2.7,6.5-0.6c2.4,2.3,1.3,4.6-0.7,6.4
			c-12.2,10.6-11.5,27.6-4.2,40.6c0.6,1,1.1,2,1.8,2.9c1.8,2.5,2.1,5-0.8,6.8c-2.7,1.6-4.6,0.1-6.1-2.2
			C112,165.2,108.5,156.7,108.7,146.3z"/>
		<g>
			<path class="st7" d="M189.5,287.6H149c10.6-23.5,16.9-47.8,21.6-72.5c0.6-3-1.5-8.1,5-8.1c3.6,0,6.7,0,10.5,1.4
				c7.7,2.8,7.1,7.7,6.9,13.9c-0.8,19.3,1.9,38.4,3.5,57.5C197,287.6,197.2,287.6,189.5,287.6z"/>
			<path class="st7" d="M163.7,201.5c-1.7,0.8-2.9-1-4-2.1c-4.1-4.1-6.5-9-6.5-14.9c0-1.2-0.5-2.8,1-3.4c1.4-0.5,2.5,0.4,3.6,1.2
				c5,3.9,6.1,9.4,6.6,15C164.1,198.8,165.2,200.8,163.7,201.5z"/>
			<path class="st7" d="M186.4,199.5c-3-4.6-5.3-9.4-4.9-15.1c0.1-1.3,0-3.3,1.8-3.7c1.3-0.2,2.4,0.9,3.3,1.9
				C190.8,187.4,190.8,195.1,186.4,199.5z"/>
			<path class="st7" d="M200,207.8c1.5-8.5,2.6-16.2,7.1-23.3C210.2,191.7,207,202.3,200,207.8z"/>
			<path class="st7" d="M195.6,197.5c-0.3,1.8-0.6,4.2-1.2,6.5c-0.3,1.1,0.2,3.1-1.5,2.9c-1.2-0.2-2.3-1.7-3.2-2.8
				c-1.2-1.5,0.5-1.9,1.2-2.5C192.5,200,194.2,198.6,195.6,197.5z"/>
		</g>
	</g>
</g>
</svg>
